<svg xmlns="http://www.w3.org/2000/svg" viewBox="0 0 1470 919" preserveAspectRatio="xMidYMid" width="1470" height="919" style="shape-rendering: auto; display: block; background: rgb(5, 10, 8); --darkreader-inline-bgimage: initial; --darkreader-inline-bgcolor: #040806;" data-darkreader-inline-bgimage="" data-darkreader-inline-bgcolor="" id="SVG 1" xmlns:xlink="http://www.w3.org/1999/xlink"><g data-idx="1"><path stroke-width="2" stroke-opacity="0" stroke="rgb(128, 240, 205)" fill="none" d="M 0 518.9 C 245 518.9 490 639.1 735 639.1 C 980 639.1 1225 518.9 1470 518.9 C 1715 518.9 1960 639.1 2205 639.1 C 2450 639.1 2695 518.9 2940 518.9" data-idx="2" data-darkreader-inline-stroke="" style="--darkreader-inline-stroke: #7b4cdb;" transform="matrix(1,0,0,1,-147.0003662109375,0)">
  
  
  
</path><path stroke-width="2" stroke-opacity="0" stroke="rgb(128, 239, 205)" fill="none" d="M 0 519.98 C 245 519.98 490 638.02 735 638.02 C 980 638.02 1225 519.98 1470 519.98 C 1715 519.98 1960 638.02 2205 638.02 C 2450 638.02 2695 519.98 2940 519.98" data-idx="6" data-darkreader-inline-stroke="" style="--darkreader-inline-stroke: #7b4bdb;" transform="matrix(1,0,0,1,-154.84024047851562,0)">
  
  
  
</path><path stroke-width="2" stroke-opacity="0" stroke="rgb(127, 237, 205)" fill="none" d="M 0 521.134 C 245 521.134 490 636.866 735 636.866 C 980 636.866 1225 521.134 1470 521.134 C 1715 521.134 1960 636.866 2205 636.866 C 2450 636.866 2695 521.134 2940 521.134" data-idx="10" data-darkreader-inline-stroke="" style="--darkreader-inline-stroke: #7a49db;" transform="matrix(1,0,0,1,-162.6801300048828,0)">
  
  
  
</path><path stroke-width="2" stroke-opacity="0" stroke="rgb(127, 235, 205)" fill="none" d="M 0 522.363 C 245 522.363 490 635.637 735 635.637 C 980 635.637 1225 522.363 1470 522.363 C 1715 522.363 1960 635.637 2205 635.637 C 2450 635.637 2695 522.363 2940 522.363" data-idx="14" data-darkreader-inline-stroke="" style="--darkreader-inline-stroke: #7b48db;" transform="matrix(1,0,0,1,-170.52037048339844,0)">
  
  
  
</path><path stroke-width="2" stroke-opacity="0" stroke="rgb(127, 233, 205)" fill="none" d="M 0 523.669 C 245 523.669 490 634.331 735 634.331 C 980 634.331 1225 523.669 1470 523.669 C 1715 523.669 1960 634.331 2205 634.331 C 2450 634.331 2695 523.669 2940 523.669" data-idx="18" data-darkreader-inline-stroke="" style="--darkreader-inline-stroke: #7b47db;" transform="matrix(1,0,0,1,-178.36024475097656,0)">
  
  
  
</path><path stroke-width="2" stroke-opacity="0" stroke="rgb(127, 231, 205)" fill="none" d="M 0 525.055 C 245 525.055 490 632.945 735 632.945 C 980 632.945 1225 525.055 1470 525.055 C 1715 525.055 1960 632.945 2205 632.945 C 2450 632.945 2695 525.055 2940 525.055" data-idx="22" data-darkreader-inline-stroke="" style="--darkreader-inline-stroke: #7b45dc;" transform="matrix(1,0,0,1,-186.20013427734375,0)">
  
  
  
</path><path stroke-width="2" stroke-opacity="0" stroke="rgb(127, 228, 206)" fill="none" d="M 0 526.521 C 245 526.521 490 631.479 735 631.479 C 980 631.479 1225 526.521 1470 526.521 C 1715 526.521 1960 631.479 2205 631.479 C 2450 631.479 2695 526.521 2940 526.521" data-idx="26" data-darkreader-inline-stroke="" style="--darkreader-inline-stroke: #7b45dc;" transform="matrix(1,0,0,1,-194.04037475585938,0)">
  
  
  
</path><path stroke-width="2" stroke-opacity="0" stroke="rgb(126, 226, 206)" fill="none" d="M 0 528.069 C 245 528.069 490 629.931 735 629.931 C 980 629.931 1225 528.069 1470 528.069 C 1715 528.069 1960 629.931 2205 629.931 C 2450 629.931 2695 528.069 2940 528.069" data-idx="30" data-darkreader-inline-stroke="" style="--darkreader-inline-stroke: #7b44dc;" transform="matrix(1,0,0,1,-201.88023376464844,0)">
  
  
  
</path><path stroke-width="2" stroke-opacity="0" stroke="rgb(126, 223, 206)" fill="none" d="M 0 529.701 C 245 529.701 490 628.299 735 628.299 C 980 628.299 1225 529.701 1470 529.701 C 1715 529.701 1960 628.299 2205 628.299 C 2450 628.299 2695 529.701 2940 529.701" data-idx="34" data-darkreader-inline-stroke="" style="--darkreader-inline-stroke: #7b42dd;" transform="matrix(1,0,0,1,-209.7201385498047,0)">
  
  
  
</path><path stroke-width="2" stroke-opacity="0" stroke="rgb(126, 221, 206)" fill="none" d="M 0 531.418 C 245 531.418 490 626.582 735 626.582 C 980 626.582 1225 531.418 1470 531.418 C 1715 531.418 1960 626.582 2205 626.582 C 2450 626.582 2695 531.418 2940 531.418" data-idx="38" data-darkreader-inline-stroke="" style="--darkreader-inline-stroke: #7c42dd;" transform="matrix(1,0,0,1,-217.5603790283203,0)">
  
  
  
</path><path stroke-width="2" stroke-opacity="0" stroke="rgb(126, 218, 206)" fill="none" d="M 0 533.22 C 245 533.22 490 624.78 735 624.78 C 980 624.78 1225 533.22 1470 533.22 C 1715 533.22 1960 624.78 2205 624.78 C 2450 624.78 2695 533.22 2940 533.22" data-idx="42" data-darkreader-inline-stroke="" style="--darkreader-inline-stroke: #7b41dd;" transform="matrix(1,0,0,1,-225.40023803710938,0)">
  
  
  
</path><path stroke-width="2" stroke-opacity="0" stroke="rgb(125, 215, 206)" fill="none" d="M 0 535.109 C 245 535.109 490 622.891 735 622.891 C 980 622.891 1225 535.109 1470 535.109 C 1715 535.109 1960 622.891 2205 622.891 C 2450 622.891 2695 535.109 2940 535.109" data-idx="46" data-darkreader-inline-stroke="" style="--darkreader-inline-stroke: #7b40dd;" transform="matrix(1,0,0,1,-233.2401123046875,0)">
  
  
  
</path><path stroke-width="2" stroke-opacity="0" stroke="rgb(125, 212, 207)" fill="none" d="M 0 537.084 C 245 537.084 490 620.916 735 620.916 C 980 620.916 1225 537.084 1470 537.084 C 1715 537.084 1960 620.916 2205 620.916 C 2450 620.916 2695 537.084 2940 537.084" data-idx="50" data-darkreader-inline-stroke="" style="--darkreader-inline-stroke: #7b40dd;" transform="matrix(1,0,0,1,-241.08035278320312,0)">
  
  
  
</path><path stroke-width="2" stroke-opacity="0" stroke="rgb(125, 209, 207)" fill="none" d="M 0 539.146 C 245 539.146 490 618.854 735 618.854 C 980 618.854 1225 539.146 1470 539.146 C 1715 539.146 1960 618.854 2205 618.854 C 2450 618.854 2695 539.146 2940 539.146" data-idx="54" data-darkreader-inline-stroke="" style="--darkreader-inline-stroke: #7b3fdd;" transform="matrix(1,0,0,1,-248.9202423095703,0)">
  
  
  
</path><path stroke-width="2" stroke-opacity="0" stroke="rgb(124, 205, 207)" fill="none" d="M 0 541.294 C 245 541.294 490 616.706 735 616.706 C 980 616.706 1225 541.294 1470 541.294 C 1715 541.294 1960 616.706 2205 616.706 C 2450 616.706 2695 541.294 2940 541.294" data-idx="58" data-darkreader-inline-stroke="" style="--darkreader-inline-stroke: #7b3fdd;" transform="matrix(1,0,0,1,-256.7601318359375,0)">
  
  
  
</path><path stroke-width="2" stroke-opacity="0" stroke="rgb(124, 202, 207)" fill="none" d="M 0 543.527 C 245 543.527 490 614.473 735 614.473 C 980 614.473 1225 543.527 1470 543.527 C 1715 543.527 1960 614.473 2205 614.473 C 2450 614.473 2695 543.527 2940 543.527" data-idx="62" data-darkreader-inline-stroke="" style="--darkreader-inline-stroke: #7b3fdd;" transform="matrix(1,0,0,1,-264.6003723144531,0)">
  
  
  
</path><path stroke-width="2" stroke-opacity="0" stroke="rgb(124, 198, 207)" fill="none" d="M 0 545.843 C 245 545.843 490 612.157 735 612.157 C 980 612.157 1225 545.843 1470 545.843 C 1715 545.843 1960 612.157 2205 612.157 C 2450 612.157 2695 545.843 2940 545.843" data-idx="66" data-darkreader-inline-stroke="" style="--darkreader-inline-stroke: #7b3edd;" transform="matrix(1,0,0,1,-272.44024658203125,0)">
  
  
  
</path><path stroke-width="2" stroke-opacity="0" stroke="rgb(123, 195, 208)" fill="none" d="M 0 548.241 C 245 548.241 490 609.759 735 609.759 C 980 609.759 1225 548.241 1470 548.241 C 1715 548.241 1960 609.759 2205 609.759 C 2450 609.759 2695 548.241 2940 548.241" data-idx="70" data-darkreader-inline-stroke="" style="--darkreader-inline-stroke: #7b3edd;" transform="matrix(1,0,0,1,-280.2801208496094,0)">
  
  
  
</path><path stroke-width="2" stroke-opacity="0" stroke="rgb(123, 191, 208)" fill="none" d="M 0 550.717 C 245 550.717 490 607.283 735 607.283 C 980 607.283 1225 550.717 1470 550.717 C 1715 550.717 1960 607.283 2205 607.283 C 2450 607.283 2695 550.717 2940 550.717" data-idx="74" data-darkreader-inline-stroke="" style="--darkreader-inline-stroke: #7b3edd;" transform="matrix(1,0,0,1,-288.120361328125,0)">
  
  
  
</path><path stroke-width="2" stroke-opacity="0" stroke="rgb(123, 187, 208)" fill="none" d="M 0 553.268 C 245 553.268 490 604.732 735 604.732 C 980 604.732 1225 553.268 1470 553.268 C 1715 553.268 1960 604.732 2205 604.732 C 2450 604.732 2695 553.268 2940 553.268" data-idx="78" data-darkreader-inline-stroke="" style="--darkreader-inline-stroke: #7b3ddd;" transform="matrix(1,0,0,1,-295.9602355957031,0)">
  
  
  
</path><path stroke-width="2" stroke-opacity="0" stroke="rgb(122, 183, 208)" fill="none" d="M 0 555.889 C 245 555.889 490 602.111 735 602.111 C 980 602.111 1225 555.889 1470 555.889 C 1715 555.889 1960 602.111 2205 602.111 C 2450 602.111 2695 555.889 2940 555.889" data-idx="82" data-darkreader-inline-stroke="" style="--darkreader-inline-stroke: #7b3ddd;" transform="matrix(1,0,0,1,-303.8001403808594,0)">
  
  
  
</path><path stroke-width="2" stroke-opacity="0" stroke="rgb(122, 179, 209)" fill="none" d="M 0 558.576 C 245 558.576 490 599.424 735 599.424 C 980 599.424 1225 558.576 1470 558.576 C 1715 558.576 1960 599.424 2205 599.424 C 2450 599.424 2695 558.576 2940 558.576" data-idx="86" data-darkreader-inline-stroke="" style="--darkreader-inline-stroke: #7b3ddd;" transform="matrix(1,0,0,1,-311.640380859375,0)">
  
  
  
</path><path stroke-width="2" stroke-opacity="0" stroke="rgb(122, 174, 209)" fill="none" d="M 0 561.322 C 245 561.322 490 596.678 735 596.678 C 980 596.678 1225 561.322 1470 561.322 C 1715 561.322 1960 596.678 2205 596.678 C 2450 596.678 2695 561.322 2940 561.322" data-idx="90" data-darkreader-inline-stroke="" style="--darkreader-inline-stroke: #7b3ddd;" transform="matrix(1,0,0,1,-319.480224609375,0)">
  
  
  
</path><path stroke-width="2" stroke-opacity="0" stroke="rgb(121, 170, 209)" fill="none" d="M 0 564.121 C 245 564.121 490 593.879 735 593.879 C 980 593.879 1225 564.121 1470 564.121 C 1715 564.121 1960 593.879 2205 593.879 C 2450 593.879 2695 564.121 2940 564.121" data-idx="94" data-darkreader-inline-stroke="" style="--darkreader-inline-stroke: #7b3ddd;" transform="matrix(1,0,0,1,-327.32012939453125,0)">
  
  
  
</path><path stroke-width="2" stroke-opacity="0" stroke="rgb(121, 166, 209)" fill="none" d="M 0 566.966 C 245 566.966 490 591.034 735 591.034 C 980 591.034 1225 566.966 1470 566.966 C 1715 566.966 1960 591.034 2205 591.034 C 2450 591.034 2695 566.966 2940 566.966" data-idx="98" data-darkreader-inline-stroke="" style="--darkreader-inline-stroke: #7b3ddd;" transform="matrix(1,0,0,1,-335.1603698730469,0)">
  
  
  
</path><path stroke-width="2" stroke-opacity="0" stroke="rgb(120, 161, 210)" fill="none" d="M 0 569.848 C 245 569.848 490 588.152 735 588.152 C 980 588.152 1225 569.848 1470 569.848 C 1715 569.848 1960 588.152 2205 588.152 C 2450 588.152 2695 569.848 2940 569.848" data-idx="102" data-darkreader-inline-stroke="" style="--darkreader-inline-stroke: #7b3ddd;" transform="matrix(1,0,0,1,-343.000244140625,0)">
  
  
  
</path><path stroke-width="2" stroke-opacity="0" stroke="rgb(120, 157, 210)" fill="none" d="M 0 572.759 C 245 572.759 490 585.241 735 585.241 C 980 585.241 1225 572.759 1470 572.759 C 1715 572.759 1960 585.241 2205 585.241 C 2450 585.241 2695 572.759 2940 572.759" data-idx="106" data-darkreader-inline-stroke="" style="--darkreader-inline-stroke: #7b3edd;" transform="matrix(1,0,0,1,-350.8401184082031,0)">
  
  
  
</path><path stroke-width="2" stroke-opacity="0" stroke="rgb(119, 152, 210)" fill="none" d="M 0 575.69 C 245 575.69 490 582.31 735 582.31 C 980 582.31 1225 575.69 1470 575.69 C 1715 575.69 1960 582.31 2205 582.31 C 2450 582.31 2695 575.69 2940 575.69" data-idx="110" data-darkreader-inline-stroke="" style="--darkreader-inline-stroke: #7b3edd;" transform="matrix(1,0,0,1,-358.6803894042969,0)">
  
  
  
</path><path stroke-width="2" stroke-opacity="0" stroke="rgb(119, 148, 210)" fill="none" d="M 0 578.632 C 245 578.632 490 579.368 735 579.368 C 980 579.368 1225 578.632 1470 578.632 C 1715 578.632 1960 579.368 2205 579.368 C 2450 579.368 2695 578.632 2940 578.632" data-idx="114" data-darkreader-inline-stroke="" style="--darkreader-inline-stroke: #7b3edd;" transform="matrix(1,0,0,1,-366.5202331542969,0)">
  
  
  
</path><path stroke-width="2" stroke-opacity="0" stroke="rgb(119, 143, 211)" fill="none" d="M 0 581.575 C 245 581.575 490 576.425 735 576.425 C 980 576.425 1225 581.575 1470 581.575 C 1715 581.575 1960 576.425 2205 576.425 C 2450 576.425 2695 581.575 2940 581.575" data-idx="118" data-darkreader-inline-stroke="" style="--darkreader-inline-stroke: #7b3fdd;" transform="matrix(1,0,0,1,-374.360107421875,0)">
  
  
  
</path><path stroke-width="2" stroke-opacity="0" stroke="rgb(118, 138, 211)" fill="none" d="M 0 584.51 C 245 584.51 490 573.49 735 573.49 C 980 573.49 1225 584.51 1470 584.51 C 1715 584.51 1960 573.49 2205 573.49 C 2450 573.49 2695 584.51 2940 584.51" data-idx="122" data-darkreader-inline-stroke="" style="--darkreader-inline-stroke: #7b3fdd;" transform="matrix(1,0,0,1,-382.20037841796875,0)">
  
  
  
</path><path stroke-width="2" stroke-opacity="0" stroke="rgb(118, 134, 211)" fill="none" d="M 0 587.427 C 245 587.427 490 570.573 735 570.573 C 980 570.573 1225 587.427 1470 587.427 C 1715 587.427 1960 570.573 2205 570.573 C 2450 570.573 2695 587.427 2940 587.427" data-idx="126" data-darkreader-inline-stroke="" style="--darkreader-inline-stroke: #7b3fdd;" transform="matrix(1,0,0,1,-390.0402526855469,0)">
  
  
  
</path><path stroke-width="2" stroke-opacity="0" stroke="rgb(117, 129, 212)" fill="none" d="M 0 590.317 C 245 590.317 490 567.683 735 567.683 C 980 567.683 1225 590.317 1470 590.317 C 1715 590.317 1960 567.683 2205 567.683 C 2450 567.683 2695 590.317 2940 590.317" data-idx="130" data-darkreader-inline-stroke="" style="--darkreader-inline-stroke: #7b40dd;" transform="matrix(1,0,0,1,-397.880126953125,0)">
  
  
  
</path><path stroke-width="2" stroke-opacity="0" stroke="rgb(117, 125, 212)" fill="none" d="M 0 593.172 C 245 593.172 490 564.828 735 564.828 C 980 564.828 1225 593.172 1470 593.172 C 1715 593.172 1960 564.828 2205 564.828 C 2450 564.828 2695 593.172 2940 593.172" data-idx="134" data-darkreader-inline-stroke="" style="--darkreader-inline-stroke: #7b40dd;" transform="matrix(1,0,0,1,-405.72039794921875,0)">
  
  
  
</path><path stroke-width="2" stroke-opacity="0" stroke="rgb(117, 121, 212)" fill="none" d="M 0 595.983 C 245 595.983 490 562.017 735 562.017 C 980 562.017 1225 595.983 1470 595.983 C 1715 595.983 1960 562.017 2205 562.017 C 2450 562.017 2695 595.983 2940 595.983" data-idx="138" data-darkreader-inline-stroke="" style="--darkreader-inline-stroke: #7b41dd;" transform="matrix(1,0,0,1,-413.56024169921875,0)">
  
  
  
</path><path stroke-width="2" stroke-opacity="0" stroke="rgb(116, 116, 212)" fill="none" d="M 0 598.743 C 245 598.743 490 559.257 735 559.257 C 980 559.257 1225 598.743 1470 598.743 C 1715 598.743 1960 559.257 2205 559.257 C 2450 559.257 2695 598.743 2940 598.743" data-idx="142" data-darkreader-inline-stroke="" style="--darkreader-inline-stroke: #7c42dd;" transform="matrix(1,0,0,1,-421.4001159667969,0)">
  
  
  
</path><path stroke-width="2" stroke-opacity="0" stroke="rgb(116, 112, 213)" fill="none" d="M 0 601.445 C 245 601.445 490 556.555 735 556.555 C 980 556.555 1225 601.445 1470 601.445 C 1715 601.445 1960 556.555 2205 556.555 C 2450 556.555 2695 601.445 2940 601.445" data-idx="146" data-darkreader-inline-stroke="" style="--darkreader-inline-stroke: #7b42dd;" transform="matrix(1,0,0,1,-429.2403869628906,0)">
  
  
  
</path><path stroke-width="2" stroke-opacity="0" stroke="rgb(115, 108, 213)" fill="none" d="M 0 604.083 C 245 604.083 490 553.917 735 553.917 C 980 553.917 1225 604.083 1470 604.083 C 1715 604.083 1960 553.917 2205 553.917 C 2450 553.917 2695 604.083 2940 604.083" data-idx="150" data-darkreader-inline-stroke="" style="--darkreader-inline-stroke: #7b43dc;" transform="matrix(1,0,0,1,-437.08026123046875,0)">
  
  
  
</path><path stroke-width="2" stroke-opacity="0" stroke="rgb(115, 104, 213)" fill="none" d="M 0 606.652 C 245 606.652 490 551.348 735 551.348 C 980 551.348 1225 606.652 1470 606.652 C 1715 606.652 1960 551.348 2205 551.348 C 2450 551.348 2695 606.652 2940 606.652" data-idx="154" data-darkreader-inline-stroke="" style="--darkreader-inline-stroke: #7b45dc;" transform="matrix(1,0,0,1,-444.9201354980469,0)">
  
  
  
</path><path stroke-width="2" stroke-opacity="0" stroke="rgb(115, 100, 213)" fill="none" d="M 0 609.147 C 245 609.147 490 548.853 735 548.853 C 980 548.853 1225 609.147 1470 609.147 C 1715 609.147 1960 548.853 2205 548.853 C 2450 548.853 2695 609.147 2940 609.147" data-idx="158" data-darkreader-inline-stroke="" style="--darkreader-inline-stroke: #7b45dc;" transform="matrix(1,0,0,1,-452.7603454589844,0)">
  
  
  
</path><path stroke-width="2" stroke-opacity="0" stroke="rgb(114, 97, 214)" fill="none" d="M 0 611.565 C 245 611.565 490 546.435 735 546.435 C 980 546.435 1225 611.565 1470 611.565 C 1715 611.565 1960 546.435 2205 546.435 C 2450 546.435 2695 611.565 2940 611.565" data-idx="162" data-darkreader-inline-stroke="" style="--darkreader-inline-stroke: #7b47db;" transform="matrix(1,0,0,1,-460.6002502441406,0)">
  
  
  
</path><path stroke-width="2" stroke-opacity="0" stroke="rgb(114, 93, 214)" fill="none" d="M 0 613.902 C 245 613.902 490 544.098 735 544.098 C 980 544.098 1225 613.902 1470 613.902 C 1715 613.902 1960 544.098 2205 544.098 C 2450 544.098 2695 613.902 2940 613.902" data-idx="166" data-darkreader-inline-stroke="" style="--darkreader-inline-stroke: #7b48db;" transform="matrix(1,0,0,1,-468.44012451171875,0)">
  
  
  
</path><path stroke-width="2" stroke-opacity="0" stroke="rgb(114, 89, 214)" fill="none" d="M 0 616.156 C 245 616.156 490 541.844 735 541.844 C 980 541.844 1225 616.156 1470 616.156 C 1715 616.156 1960 541.844 2205 541.844 C 2450 541.844 2695 616.156 2940 616.156" data-idx="170" data-darkreader-inline-stroke="" style="--darkreader-inline-stroke: #7a49db;" transform="matrix(1,0,0,1,-476.2803649902344,0)">
  
  
  
</path><path stroke-width="2" stroke-opacity="0" stroke="rgb(113, 86, 214)" fill="none" d="M 0 618.325 C 245 618.325 490 539.675 735 539.675 C 980 539.675 1225 618.325 1470 618.325 C 1715 618.325 1960 539.675 2205 539.675 C 2450 539.675 2695 618.325 2940 618.325" data-idx="174" data-darkreader-inline-stroke="" style="--darkreader-inline-stroke: #7b4bdb;" transform="matrix(1,0,0,1,-484.1202697753906,0)">
  
  
  
</path><path stroke-width="2" stroke-opacity="0" stroke="rgb(113, 83, 214)" fill="none" d="M 0 620.409 C 245 620.409 490 537.591 735 537.591 C 980 537.591 1225 620.409 1470 620.409 C 1715 620.409 1960 537.591 2205 537.591 C 2450 537.591 2695 620.409 2940 620.409" data-idx="178" data-darkreader-inline-stroke="" style="--darkreader-inline-stroke: #7b4cdb;" transform="matrix(1,0,0,1,-491.96014404296875,0)">
  
  
  
</path><path stroke-width="2" stroke-opacity="0" stroke="rgb(113, 80, 215)" fill="none" d="M 0 622.406 C 245 622.406 490 535.594 735 535.594 C 980 535.594 1225 622.406 1470 622.406 C 1715 622.406 1960 535.594 2205 535.594 C 2450 535.594 2695 622.406 2940 622.406" data-idx="182" data-darkreader-inline-stroke="" style="--darkreader-inline-stroke: #7b4ddb;" transform="matrix(1,0,0,1,-499.80035400390625,0)">
  
  
  
</path><path stroke-width="2" stroke-opacity="0.022727272727272728" stroke="rgb(112, 77, 215)" fill="none" d="M 0 624.316 C 245 624.316 490 533.684 735 533.684 C 980 533.684 1225 624.316 1470 624.316 C 1715 624.316 1960 533.684 2205 533.684 C 2450 533.684 2695 624.316 2940 624.316" data-idx="186" data-darkreader-inline-stroke="" style="--darkreader-inline-stroke: #7a4fdb;" transform="matrix(1,0,0,1,-507.6402282714844,0)">
  
  
  
</path><path stroke-width="2" stroke-opacity="0.045454545454545456" stroke="rgb(112, 74, 215)" fill="none" d="M 0 626.14 C 245 626.14 490 531.86 735 531.86 C 980 531.86 1225 626.14 1470 626.14 C 1715 626.14 1960 531.86 2205 531.86 C 2450 531.86 2695 626.14 2940 626.14" data-idx="190" data-darkreader-inline-stroke="" style="--darkreader-inline-stroke: #7a51da;" transform="matrix(1,0,0,1,-515.4801635742188,0)">
  
  
  
</path><path stroke-width="2" stroke-opacity="0.06818181818181818" stroke="rgb(112, 71, 215)" fill="none" d="M 0 627.878 C 245 627.878 490 530.122 735 530.122 C 980 530.122 1225 627.878 1470 627.878 C 1715 627.878 1960 530.122 2205 530.122 C 2450 530.122 2695 627.878 2940 627.878" data-idx="194" data-darkreader-inline-stroke="" style="--darkreader-inline-stroke: #7b53da;" transform="matrix(1,0,0,1,-523.3203735351562,0)">
  
  
  
</path><path stroke-width="2" stroke-opacity="0.09090909090909091" stroke="rgb(112, 69, 215)" fill="none" d="M 0 629.531 C 245 629.531 490 528.469 735 528.469 C 980 528.469 1225 629.531 1470 629.531 C 1715 629.531 1960 528.469 2205 528.469 C 2450 528.469 2695 629.531 2940 629.531" data-idx="198" data-darkreader-inline-stroke="" style="--darkreader-inline-stroke: #7a54da;" transform="matrix(1,0,0,1,-531.1602172851562,0)">
  
  
  
</path><path stroke-width="2" stroke-opacity="0.11363636363636363" stroke="rgb(111, 66, 215)" fill="none" d="M 0 631.1 C 245 631.1 490 526.9 735 526.9 C 980 526.9 1225 631.1 1470 631.1 C 1715 631.1 1960 526.9 2205 526.9 C 2450 526.9 2695 631.1 2940 631.1" data-idx="202" data-darkreader-inline-stroke="" style="--darkreader-inline-stroke: #7a57da;" transform="matrix(1,0,0,1,-539.0001220703125,0)">
  
  
  
</path><path stroke-width="2" stroke-opacity="0.13636363636363635" stroke="rgb(111, 64, 216)" fill="none" d="M 0 632.586 C 245 632.586 490 525.414 735 525.414 C 980 525.414 1225 632.586 1470 632.586 C 1715 632.586 1960 525.414 2205 525.414 C 2450 525.414 2695 632.586 2940 632.586" data-idx="206" data-darkreader-inline-stroke="" style="--darkreader-inline-stroke: #7959da;" transform="matrix(1,0,0,1,-546.8403930664062,0)">
  
  
  
</path><path stroke-width="2" stroke-opacity="0.1590909090909091" stroke="rgb(111, 62, 216)" fill="none" d="M 0 633.992 C 245 633.992 490 524.008 735 524.008 C 980 524.008 1225 633.992 1470 633.992 C 1715 633.992 1960 524.008 2205 524.008 C 2450 524.008 2695 633.992 2940 633.992" data-idx="210" data-darkreader-inline-stroke="" style="--darkreader-inline-stroke: #7a5bda;" transform="matrix(1,0,0,1,-554.6802368164062,0)">
  
  
  
</path><path stroke-width="2" stroke-opacity="0.18181818181818182" stroke="rgb(111, 60, 216)" fill="none" d="M 0 635.318 C 245 635.318 490 522.682 735 522.682 C 980 522.682 1225 635.318 1470 635.318 C 1715 635.318 1960 522.682 2205 522.682 C 2450 522.682 2695 635.318 2940 635.318" data-idx="214" data-darkreader-inline-stroke="" style="--darkreader-inline-stroke: #7a5dd8;" transform="matrix(1,0,0,1,-562.5200805664062,0)">
  
  
  
</path><path stroke-width="2" stroke-opacity="0.20454545454545456" stroke="rgb(111, 58, 216)" fill="none" d="M 0 636.566 C 245 636.566 490 521.434 735 521.434 C 980 521.434 1225 636.566 1470 636.566 C 1715 636.566 1960 521.434 2205 521.434 C 2450 521.434 2695 636.566 2940 636.566" data-idx="218" data-darkreader-inline-stroke="" style="--darkreader-inline-stroke: #7960d8;" transform="matrix(1,0,0,1,-570.3603515625,0)">
  
  
  
</path><path stroke-width="2" stroke-opacity="0.22727272727272727" stroke="rgb(110, 56, 216)" fill="none" d="M 0 637.738 C 245 637.738 490 520.262 735 520.262 C 980 520.262 1225 637.739 1470 637.739 C 1715 637.739 1960 520.262 2205 520.262 C 2450 520.262 2695 637.739 2940 637.739" data-idx="222" data-darkreader-inline-stroke="" style="--darkreader-inline-stroke: #7a62d8;" transform="matrix(1,0,0,1,-578.2002563476562,0)">
  
  
  
</path><path stroke-width="2" stroke-opacity="0.25" stroke="rgb(110, 54, 216)" fill="none" d="M 0 638.837 C 245 638.837 490 519.163 735 519.163 C 980 519.163 1225 638.837 1470 638.837 C 1715 638.837 1960 519.163 2205 519.163 C 2450 519.163 2695 638.837 2940 638.837" data-idx="226" data-darkreader-inline-stroke="" style="--darkreader-inline-stroke: #7965d8;" transform="matrix(1,0,0,1,-586.0401000976562,0)">
  
  
  
</path><path stroke-width="2" stroke-opacity="0.2727272727272727" stroke="rgb(110, 53, 216)" fill="none" d="M 0 639.862 C 245 639.862 490 518.138 735 518.138 C 980 518.138 1225 639.862 1470 639.862 C 1715 639.862 1960 518.138 2205 518.138 C 2450 518.138 2695 639.862 2940 639.862" data-idx="230" data-darkreader-inline-stroke="" style="--darkreader-inline-stroke: #7867d8;" transform="matrix(1,0,0,1,-593.88037109375,0)">
  
  
  
</path><path stroke-width="2" stroke-opacity="0.29545454545454547" stroke="rgb(110, 51, 216)" fill="none" d="M 0 640.818 C 245 640.818 490 517.182 735 517.182 C 980 517.182 1225 640.818 1470 640.818 C 1715 640.818 1960 517.182 2205 517.182 C 2450 517.182 2695 640.818 2940 640.818" data-idx="234" data-darkreader-inline-stroke="" style="--darkreader-inline-stroke: #796ad7;" transform="matrix(1,0,0,1,-601.72021484375,0)">
  
  
  
</path><path stroke-width="2" stroke-opacity="0.3181818181818182" stroke="rgb(110, 50, 216)" fill="none" d="M 0 641.705 C 245 641.705 490 516.295 735 516.295 C 980 516.295 1225 641.705 1470 641.705 C 1715 641.705 1960 516.295 2205 516.295 C 2450 516.295 2695 641.705 2940 641.705" data-idx="238" data-darkreader-inline-stroke="" style="--darkreader-inline-stroke: #786dd7;" transform="matrix(1,0,0,1,-609.5601196289062,0)">
  
  
  
</path><path stroke-width="2" stroke-opacity="0.3409090909090909" stroke="rgb(110, 48, 216)" fill="none" d="M 0 642.525 C 245 642.525 490 515.475 735 515.475 C 980 515.475 1225 642.525 1470 642.525 C 1715 642.525 1960 515.475 2205 515.475 C 2450 515.475 2695 642.525 2940 642.525" data-idx="242" data-darkreader-inline-stroke="" style="--darkreader-inline-stroke: #7093d6;" transform="matrix(1,0,0,1,-617.400390625,0)">
  
  
  
</path><path stroke-width="2" stroke-opacity="0.36363636363636365" stroke="rgb(110, 47, 217)" fill="none" d="M 0 643.28 C 245 643.28 490 514.72 735 514.72 C 980 514.72 1225 643.28 1470 643.28 C 1715 643.28 1960 514.72 2205 514.72 C 2450 514.72 2695 643.28 2940 643.28" data-idx="246" data-darkreader-inline-stroke="" style="--darkreader-inline-stroke: #7396d6;" transform="matrix(1,0,0,1,-625.240234375,0)">
  
  
  
</path><path stroke-width="2" stroke-opacity="0.38636363636363635" stroke="rgb(110, 46, 217)" fill="none" d="M 0 643.973 C 245 643.973 490 514.027 735 514.027 C 980 514.027 1225 643.973 1470 643.973 C 1715 643.973 1960 514.027 2205 514.027 C 2450 514.027 2695 643.973 2940 643.973" data-idx="250" data-darkreader-inline-stroke="" style="--darkreader-inline-stroke: #7799d5;" transform="matrix(1,0,0,1,-633.0801391601562,0)">
  
  
  
</path><path stroke-width="2" stroke-opacity="0.4090909090909091" stroke="rgb(109, 45, 217)" fill="none" d="M 0 644.604 C 245 644.604 490 513.396 735 513.396 C 980 513.396 1225 644.604 1470 644.604 C 1715 644.604 1960 513.396 2205 513.396 C 2450 513.396 2695 644.604 2940 644.604" data-idx="254" data-darkreader-inline-stroke="" style="--darkreader-inline-stroke: #789bd5;" transform="matrix(1,0,0,1,-640.9203491210938,0)">
  
  
  
</path><path stroke-width="2" stroke-opacity="0.4318181818181818" stroke="rgb(109, 44, 217)" fill="none" d="M 0 645.175 C 245 645.175 490 512.825 735 512.825 C 980 512.825 1225 645.175 1470 645.175 C 1715 645.175 1960 512.825 2205 512.825 C 2450 512.825 2695 645.175 2940 645.175" data-idx="258" data-darkreader-inline-stroke="" style="--darkreader-inline-stroke: #789cd5;" transform="matrix(1,0,0,1,-648.76025390625,0)">
  
  
  
</path><path stroke-width="2" stroke-opacity="0.45454545454545453" stroke="rgb(109, 44, 217)" fill="none" d="M 0 645.69 C 245 645.69 490 512.311 735 512.311 C 980 512.311 1225 645.69 1470 645.69 C 1715 645.69 1960 512.311 2205 512.311 C 2450 512.311 2695 645.69 2940 645.69" data-idx="262" data-darkreader-inline-stroke="" style="--darkreader-inline-stroke: #789ed5;" transform="matrix(1,0,0,1,-656.60009765625,0)">
  
  
  
</path><path stroke-width="2" stroke-opacity="0.4772727272727273" stroke="rgb(109, 43, 217)" fill="none" d="M 0 646.147 C 245 646.147 490 511.853 735 511.853 C 980 511.853 1225 646.147 1470 646.147 C 1715 646.147 1960 511.853 2205 511.853 C 2450 511.853 2695 646.147 2940 646.147" data-idx="266" data-darkreader-inline-stroke="" style="--darkreader-inline-stroke: #78a0d4;" transform="matrix(1,0,0,1,-664.4403686523438,0)">
  
  
  
</path><path stroke-width="2" stroke-opacity="0.5" stroke="rgb(109, 42, 217)" fill="none" d="M 0 646.551 C 245 646.551 490 511.449 735 511.449 C 980 511.449 1225 646.551 1470 646.551 C 1715 646.551 1960 511.449 2205 511.449 C 2450 511.449 2695 646.551 2940 646.551" data-idx="270" data-darkreader-inline-stroke="" style="--darkreader-inline-stroke: #78a1d4;" transform="matrix(1,0,0,1,-672.2802734375,0)">
  
  
  
</path><path stroke-width="2" stroke-opacity="0.5227272727272727" stroke="rgb(109, 42, 217)" fill="none" d="M 0 646.902 C 245 646.902 490 511.098 735 511.098 C 980 511.098 1225 646.902 1470 646.902 C 1715 646.902 1960 511.098 2205 511.098 C 2450 511.098 2695 646.902 2940 646.902" data-idx="274" data-darkreader-inline-stroke="" style="--darkreader-inline-stroke: #79a3d4;" transform="matrix(1,0,0,1,-680.1201171875,0)">
  
  
  
</path><path stroke-width="2" stroke-opacity="0.5454545454545454" stroke="rgb(109, 41, 217)" fill="none" d="M 0 647.201 C 245 647.201 490 510.799 735 510.799 C 980 510.799 1225 647.201 1470 647.201 C 1715 647.201 1960 510.799 2205 510.799 C 2450 510.799 2695 647.201 2940 647.201" data-idx="278" data-darkreader-inline-stroke="" style="--darkreader-inline-stroke: #79a4d3;" transform="matrix(1,0,0,1,-687.9603881835938,0)">
  
  
  
</path><path stroke-width="2" stroke-opacity="0.5681818181818182" stroke="rgb(109, 41, 217)" fill="none" d="M 0 647.451 C 245 647.451 490 510.549 735 510.549 C 980 510.549 1225 647.451 1470 647.451 C 1715 647.451 1960 510.549 2205 510.549 C 2450 510.549 2695 647.451 2940 647.451" data-idx="282" data-darkreader-inline-stroke="" style="--darkreader-inline-stroke: #79a6d3;" transform="matrix(1,0,0,1,-695.8002319335938,0)">
  
  
  
</path><path stroke-width="2" stroke-opacity="0.5909090909090909" stroke="rgb(109, 41, 217)" fill="none" d="M 0 647.652 C 245 647.652 490 510.348 735 510.348 C 980 510.348 1225 647.652 1470 647.652 C 1715 647.652 1960 510.348 2205 510.348 C 2450 510.348 2695 647.652 2940 647.652" data-idx="286" data-darkreader-inline-stroke="" style="--darkreader-inline-stroke: #7aa8d3;" transform="matrix(1,0,0,1,-703.64013671875,0)">
  
  
  
</path><path stroke-width="2" stroke-opacity="0.6136363636363636" stroke="rgb(109, 40, 217)" fill="none" d="M 0 647.806 C 245 647.806 490 510.194 735 510.194 C 980 510.194 1225 647.806 1470 647.806 C 1715 647.806 1960 510.194 2205 510.194 C 2450 510.194 2695 647.806 2940 647.806" data-idx="290" data-darkreader-inline-stroke="" style="--darkreader-inline-stroke: #7aaad3;" transform="matrix(1,0,0,1,-711.4803466796875,0)">
  
  
  
</path><path stroke-width="2" stroke-opacity="0.6363636363636364" stroke="rgb(109, 40, 217)" fill="none" d="M 0 647.915 C 245 647.915 490 510.085 735 510.085 C 980 510.085 1225 647.915 1470 647.915 C 1715 647.915 1960 510.085 2205 510.085 C 2450 510.085 2695 647.915 2940 647.915" data-idx="294" data-darkreader-inline-stroke="" style="--darkreader-inline-stroke: #7babd2;" transform="matrix(1,0,0,1,-719.3202514648438,0)">
  
  
  
</path><path stroke-width="2" stroke-opacity="0.6590909090909091" stroke="rgb(109, 40, 217)" fill="none" d="M 0 647.979 C 245 647.979 490 510.021 735 510.021 C 980 510.021 1225 647.979 1470 647.979 C 1715 647.979 1960 510.021 2205 510.021 C 2450 510.021 2695 647.979 2940 647.979" data-idx="298" data-darkreader-inline-stroke="" style="--darkreader-inline-stroke: #7badd2;" transform="matrix(1,0,0,1,-727.16015625,0)">
  
  
  
</path><g data-idx="302"></g></g><text data-watermark="true" text-anchor="middle" dominant-baseline="middle" stroke-opacity="0.1" fill="black" fill-opacity="0.1" stroke="white" stroke-width="1" font-size="15.0" x="735.0" y="459.5" data-idx="303" style="opacity: 1; font-size: 15px; --darkreader-inline-fill: #e8e6e3; --darkreader-inline-stroke: #303436;" data-darkreader-inline-fill="" data-darkreader-inline-stroke="">LOADING.IO</text></svg>