<?xml version="1.0" standalone="no"?>
<svg id="SvgjsSvg1001" width="600" height="600" xmlns="http://www.w3.org/2000/svg" version="1.1" xmlns:xlink="http://www.w3.org/1999/xlink" xmlns:svgjs="http://svgjs.com/svgjs" class="svg-paper" viewBox="0 0 600 600"><title id="SvgjsTitle25472">x=min((y-sqrt(x*x + y*y)),y)|y=x|dTest=0.0|sd=0.4|sm=0.35|ts=0.01 | generated with FlowLines</title><rect id="SvgjsRect25473" width="600" height="600" fill="#050a08" data-darkreader-inline-fill="" style="--darkreader-inline-fill: #040806;"/><g id="SvgjsG25474"><polyline id="SvgjsPolyline25475" points="103.34,0.06 93.88,29.79 82.64,60.81 70.72,89.64 59.58,113.57 46.57,138.59 33.03,161.95 17.79,185.67 0.08,210.62" fill="none" stroke="#81fecc" stroke-width="1" data-darkreader-inline-stroke="" style="--darkreader-inline-stroke: #74fec7;"/><polyline id="SvgjsPolyline25476" points="129.13,0.25 117.99,38.87 106.6,72.38 93.26,105.81 77.68,138.93 61.5,168.37 43.55,196.76 22.85,225.48 0.17,253.42" fill="none" stroke="#81fecc" stroke-width="1" data-darkreader-inline-stroke="" style="--darkreader-inline-stroke: #74fec7;"/><polyline id="SvgjsPolyline25477" points="77.22,0.18 68.97,23.99 60.22,46.98 42.55,87.7 32.48,108.16 21.72,128.26 0.09,164.25" fill="none" stroke="#81fecc" stroke-width="1" data-darkreader-inline-stroke="" style="--darkreader-inline-stroke: #74fec7;"/><polyline id="SvgjsPolyline25478" points="154.76,0.21 142.87,46.71 136.48,67.97 129.23,89.59 121.21,110.93 113.08,130.29 105.51,146.62 96.52,164.26 87.74,179.97 77.42,196.87 67.46,211.86 55.18,228.9 30.33,259.72 0.29,292.4" fill="none" stroke="#81fecc" stroke-width="1" data-darkreader-inline-stroke="" style="--darkreader-inline-stroke: #74fec7;"/><polyline id="SvgjsPolyline25479" points="50.92,0.08 39.81,29.23 27.35,58.48 14.49,85.59 0.23,112.66" fill="none" stroke="#81fecc" stroke-width="1" data-darkreader-inline-stroke="" style="--darkreader-inline-stroke: #74fec7;"/><polyline id="SvgjsPolyline25480" points="180.13,0.5 174.7,26.94 168.56,53.24 161.9,78.16 154.52,102.25 146.35,125.46 138.06,146.05 128.82,166.23 119.74,183.83 108.93,202.52 97.87,219.66 86.04,236.28 71.61,254.7 55.58,273.36 39.22,290.92 20.55,309.58 0.4,328.44" fill="none" stroke="#81fecc" stroke-width="1" data-darkreader-inline-stroke="" style="--darkreader-inline-stroke: #74fec7;"/><polyline id="SvgjsPolyline25481" points="24.23,0.36 12.62,28.67 0.24,56" fill="none" stroke="#81fecc" stroke-width="1" data-darkreader-inline-stroke="" style="--darkreader-inline-stroke: #74fec7;"/><polyline id="SvgjsPolyline25482" points="205.38,0.48 199.4,35.98 193.53,65.39 187.38,91.68 179.7,119.44 172.03,142.81 163.16,165.75 153.47,187.05 142.79,207.19 130.55,227.12 117.81,245.3 103.71,263.22 87.52,281.74 68.38,301.62 48.42,320.68 25.11,341.41 0.25,362.19" fill="none" stroke="#81fecc" stroke-width="1" data-darkreader-inline-stroke="" style="--darkreader-inline-stroke: #74fec7;"/><polyline id="SvgjsPolyline25483" points="230.53,0.11 225.48,39.99 220.14,74.38 214.32,105.03 207.34,134.82 200.18,159.6 191.32,184.47 181.16,207.52 170.99,226.57 158.45,246.32 144.47,265.08 127.27,285.1 108.89,304.04 86.5,324.9 62.81,345.2 35.18,367.33 0.22,393.71" fill="none" stroke="#81fecc" stroke-width="1" data-darkreader-inline-stroke="" style="--darkreader-inline-stroke: #74fec7;"/><polyline id="SvgjsPolyline25484" points="255.51,0.55 251.38,49.58 247.02,89.54 241.88,125.77 236.19,156.45 229.35,184.42 221.82,207.83 213.29,228.32 202.86,247.91 189.82,267.33 175.01,285.43 156.71,304.45 136.35,323.08 109.99,344.87 78.49,368.86 41.89,395.04 0.26,423.45" fill="none" stroke="#81fecc" stroke-width="1" data-darkreader-inline-stroke="" style="--darkreader-inline-stroke: #74fec7;"/><polyline id="SvgjsPolyline25485" points="280.46,0.59 278.1,61.74 275.35,112.07 271.89,155.73 268.08,188.51 263.32,216.3 258.21,236.66 251.44,255.26 242.81,271.71 231.17,287.71 217.23,302.59 197.48,320.1 173.31,338.86 140.01,362.43 104.56,386.05 57.56,416.13 0.48,451.6" fill="none" stroke="#81fecc" stroke-width="1" data-darkreader-inline-stroke="" style="--darkreader-inline-stroke: #74fec7;"/><polyline id="SvgjsPolyline25486" points="599.92,467.59 467.22,389.05 419.02,359.76 385.51,338.67 360.58,321.98 343.77,309.4 332.23,298.92 324.42,289.06 318.96,277.73 315.37,264.42 312.46,244.84 310.37,219.73 308.68,184.97 307.34,138.79 305.39,0.2" fill="none" stroke="#81fecc" stroke-width="1" data-darkreader-inline-stroke="" style="--darkreader-inline-stroke: #74fec7;"/><polyline id="SvgjsPolyline25487" points="293.19,0.05 290.8,135.63 289.14,181.8 287.11,215.94 284.47,242.2 281.05,261.7 276.84,275.46 271.13,286.67 262.61,297.5 251.24,308.17 234.67,321.06 210.48,337.77 176.67,359.51 134.8,385.35 0.34,465.62" fill="none" stroke="#81fecc" stroke-width="1" data-darkreader-inline-stroke="" style="--darkreader-inline-stroke: #74fec7;"/><polyline id="SvgjsPolyline25488" points="599.96,495.96 533.81,460.61 480.51,433.07 435.81,411.12 397.54,393.82 365.71,381.31 341.66,373.82 319.93,369.36 300.19,367.93 289.4,368.34 279.86,369.39 258.71,373.72 231.83,382.19 201.71,394.14 161.29,412.5 116.09,434.79 62.81,462.39 0.38,495.78" fill="none" stroke="#81fecc" stroke-width="1" data-darkreader-inline-stroke="" style="--darkreader-inline-stroke: #74fec7;"/><polyline id="SvgjsPolyline25489" points="599.62,438.48 548.31,405.13 510.03,379.26 476.29,355.27 447.21,333.05 424.28,313.71 405.26,295.41 390.64,278.72 377.89,260.56 367.99,242.05 360.02,221.99 353.04,197.78 347.63,171.95 342.48,138.14 338.32,100.57 334.48,53.33 331.28,0.02" fill="none" stroke="#81fecc" stroke-width="1" data-darkreader-inline-stroke="" style="--darkreader-inline-stroke: #74fec7;"/><polyline id="SvgjsPolyline25490" points="599.79,481.53 465.56,406.86 417.43,381.07 379.47,361.75 352.81,349.36 331.02,340.83 314.24,336.3 307.12,335.26 299.33,334.91 285.03,336.44 268.27,341.07 247.61,349.18 218.25,362.88 181.92,381.44 133.28,407.53 0.1,481.63" fill="none" stroke="#81fecc" stroke-width="1" data-darkreader-inline-stroke="" style="--darkreader-inline-stroke: #74fec7;"/><polyline id="SvgjsPolyline25491" points="599.86,454.03 540.12,417.17 488.97,384.68 449.97,358.81 420.07,337.7 394.95,318.21 377.48,302.65 363.96,288.2 353.08,273.13 348.66,265.29 344.6,256.6 338.29,238.47 333.45,218.05 329.01,190.2 325.6,158.59 322.43,115.51 320.04,68.77 317.61,0.41" fill="none" stroke="#81fecc" stroke-width="1" data-darkreader-inline-stroke="" style="--darkreader-inline-stroke: #74fec7;"/><polyline id="SvgjsPolyline25492" points="599.59,473.92 431.55,377.38 345.91,328.93 314.53,312.55 306.14,309.29 299.65,308.28 293.76,309.32 284.85,312.88 247.73,332.51 166.82,378.36 0.33,474" fill="none" stroke="#81fecc" stroke-width="1" data-darkreader-inline-stroke="" style="--darkreader-inline-stroke: #74fec7;"/><polyline id="SvgjsPolyline25493" points="599.89,523.81 545.5,497.09 493.26,472.82 451.91,455.08 415.51,441.09 383.57,430.66 353.91,423.16 327.27,418.82 301.53,417.26 286.54,417.64 273.98,418.68 247.91,422.78 219.37,429.81 187.38,440.07 152.6,453.25 108.44,472.06 58.89,494.99 0.17,523.78" fill="none" stroke="#81fecc" stroke-width="1" data-darkreader-inline-stroke="" style="--darkreader-inline-stroke: #74fec7;"/><polyline id="SvgjsPolyline25494" points="599.51,408.75 563.41,382.9 528.95,356.85 501.91,334.95 478.48,314.35 457.45,293.81 440.59,275.09 426.95,257.58 414.11,238.02 404.11,219.56 394.25,197.03 385.84,172.65 378.76,146.6 372.57,117.86 366.65,82.96 361.78,46.69 356.84,0.15" fill="none" stroke="#81fecc" stroke-width="1" data-darkreader-inline-stroke="" style="--darkreader-inline-stroke: #74fec7;"/><polyline id="SvgjsPolyline25495" points="599.58,551.17 549.87,528.59 503.48,508.9 462.07,492.89 425.15,480.34 391.67,470.85 360.6,464.13 332.08,460.14 302.13,458.54 275.16,459.5 244.2,463.3 211.31,470.11 177.78,479.43 140.25,492.05 99.36,507.75 51.29,528.08 0.48,551.15" fill="none" stroke="#81fecc" stroke-width="1" data-darkreader-inline-stroke="" style="--darkreader-inline-stroke: #74fec7;"/><polyline id="SvgjsPolyline25496" points="599.78,378.38 573.42,357.54 545.39,334.01 522.69,313.49 502.17,293.29 483.53,272.93 468.38,254.33 454.44,234.79 442.49,215.38 432.42,196.28 422.65,174.36 414.27,151.88 406.44,126.67 399.69,100.53 393.15,70.02 387.09,35.75 381.87,0.14" fill="none" stroke="#81fecc" stroke-width="1" data-darkreader-inline-stroke="" style="--darkreader-inline-stroke: #74fec7;"/><polyline id="SvgjsPolyline25497" points="599.49,578.32 549.73,557.35 506.67,540.61 465.33,526.16 427.42,514.73 393.63,506.41 359.4,500.19 328.99,496.85 297.81,495.79 269.05,497 235.68,500.93 202.68,507.22 168.37,515.9 131.66,527.15 92.6,540.88 49.55,557.64 0.35,578.39" fill="none" stroke="#81fecc" stroke-width="1" data-darkreader-inline-stroke="" style="--darkreader-inline-stroke: #74fec7;"/><polyline id="SvgjsPolyline25498" points="599.71,346.62 577.64,327.2 555.77,306.67 537.62,288.33 521.03,270.17 506.04,252.2 493.01,234.98 479.9,215.6 467.94,195.49 458.23,176.87 449.01,156.68 440.4,134.92 432.64,112.22 425.35,87.47 418.72,61.3 412.23,31.39 406.43,0.13" fill="none" stroke="#81fecc" stroke-width="1" data-darkreader-inline-stroke="" style="--darkreader-inline-stroke: #74fec7;"/><polyline id="SvgjsPolyline25499" points="586.25,599.78 541.47,582.51 499.58,567.8 462.35,556.2 426.99,546.76 392.97,539.43 362.16,534.52 329.32,531.33 297.54,530.41 266.97,531.58 238.32,534.46 206.92,539.45 171.74,547.07 134.09,557.24 95.76,569.36 55.61,583.59 13.64,599.82" fill="none" stroke="#81fecc" stroke-width="1" data-darkreader-inline-stroke="" style="--darkreader-inline-stroke: #74fec7;"/><polyline id="SvgjsPolyline25500" points="599.62,313.4 580.4,294.44 565.1,278.35 549.95,261.32 535.83,244.19 523.14,227.46 511.5,210.7 500.3,192.95 490.49,175.75 480.91,157.06 472.41,138.52 464.02,117.96 456.66,97.66 450.02,77.1 443.24,53.46 436.77,27.87 430.65,0.34" fill="none" stroke="#81fecc" stroke-width="1" data-darkreader-inline-stroke="" style="--darkreader-inline-stroke: #74fec7;"/><polyline id="SvgjsPolyline25501" points="516.19,599.9 485.8,590.54 456.31,582.41 426.55,575.3 400.66,570.12 374.59,565.97 350.16,563.13 324.42,561.31 301.03,560.74 276.44,561.27 250.7,563.05 223.89,566.18 199.01,570.18 173.12,575.37 143.95,582.34 115.6,590.13 84.06,599.82" fill="none" stroke="#81fecc" stroke-width="1" data-darkreader-inline-stroke="" style="--darkreader-inline-stroke: #74fec7;"/><polyline id="SvgjsPolyline25502" points="599.86,278.62 573.29,248.45 549.74,218.13 528.66,186.76 510.49,155 494.85,122.58 479.68,84.72 467.26,47.12 454.59,0.21" fill="none" stroke="#81fecc" stroke-width="1" data-darkreader-inline-stroke="" style="--darkreader-inline-stroke: #74fec7;"/><polyline id="SvgjsPolyline25503" points="422.34,599.93 389.24,594.21 357.08,590.25 325.97,588.03 297.17,587.45 266.59,588.41 237.89,590.76 206.36,594.88 177.41,599.98" fill="none" stroke="#81fecc" stroke-width="1" data-darkreader-inline-stroke="" style="--darkreader-inline-stroke: #74fec7;"/><polyline id="SvgjsPolyline25504" points="599.96,241.34 578.55,213.91 560.03,187.33 541.83,157.67 527.37,130.71 513.4,100.82 501.24,70.79 489.39,36.8 478.59,0.57" fill="none" stroke="#81fecc" stroke-width="1" data-darkreader-inline-stroke="" style="--darkreader-inline-stroke: #74fec7;"/><polyline id="SvgjsPolyline25505" points="599.66,200.48 583.66,177.26 568.72,153.35 555.74,130.36 543.49,106.3 531.32,79.54 521.17,54.52 510.77,25.75 502.49,0.05" fill="none" stroke="#81fecc" stroke-width="1" data-darkreader-inline-stroke="" style="--darkreader-inline-stroke: #74fec7;"/><polyline id="SvgjsPolyline25506" points="599.83,156.3 578.59,120.08 559.41,82.04 543.01,44.04 526.92,0.1" fill="none" stroke="#81fecc" stroke-width="1" data-darkreader-inline-stroke="" style="--darkreader-inline-stroke: #74fec7;"/><polyline id="SvgjsPolyline25507" points="599.96,107.12 586.67,81.58 574.39,55.53 562.64,27.93 552.1,0.48" fill="none" stroke="#81fecc" stroke-width="1" data-darkreader-inline-stroke="" style="--darkreader-inline-stroke: #74fec7;"/><polyline id="SvgjsPolyline25508" points="599.8,51.13 588.97,27.06 578.01,0.42" fill="none" stroke="#81fecc" stroke-width="1" data-darkreader-inline-stroke="" style="--darkreader-inline-stroke: #74fec7;"/></g></svg>