<?xml version="1.0" standalone="no"?>
<svg id="SvgjsSvg1001" width="600" height="600" xmlns="http://www.w3.org/2000/svg" version="1.1" xmlns:xlink="http://www.w3.org/1999/xlink" xmlns:svgjs="http://svgjs.com/svgjs" class="svg-paper" viewBox="0 0 600 600"><title id="SvgjsTitle26432">x=x|y=max(sqrt(x*x + y*y),sin(x/y/sin(min(y,x))))|dTest=0.0|sd=0.3|sm=0.35|ts=0.0 | generated with FlowLines</title><rect id="SvgjsRect26433" width="600" height="600" fill="#050a08" data-darkreader-inline-fill="" style="--darkreader-inline-fill: #040806;"/><g id="SvgjsG26434"><polyline id="SvgjsPolyline26435" points="266.37,599.55 262.5,568.59 257.4,536.24 251.52,507.19 245.94,485.27 238.36,461.49 230.86,442.65 222.37,425.11 212.16,407.59 202.5,393.41 193.03,381.02 181.51,367.26 167.38,351.65 143.56,326.94 59,241.63 0.46,179.97" fill="none" stroke="#81fecc" stroke-width="1" data-darkreader-inline-stroke="" style="--darkreader-inline-stroke: #74fec7;"/><polyline id="SvgjsPolyline26436" points="283.9,599.95 281.12,555.57 278.06,519.83 274.38,488.06 270.01,460.33 265.14,437.44 259.14,416.45 251.88,397.52 243.05,380.14 230.54,361.31 214.63,342.09 195.35,321.68 133.86,259.62 96.23,220.06 49.07,168.07 0.09,111.43" fill="none" stroke="#81fecc" stroke-width="1" data-darkreader-inline-stroke="" style="--darkreader-inline-stroke: #74fec7;"/><polyline id="SvgjsPolyline26437" points="248.78,599.96 243.53,571.59 237.74,545.71 231.46,522.36 224.52,500.83 216.39,479.73 207.95,461.29 198.37,443.42 187.67,426.2 177.36,411.52 165.88,396.73 152.8,381.24 136.57,363.32 107.35,332.98 0.31,224.92" fill="none" stroke="#81fecc" stroke-width="1" data-darkreader-inline-stroke="" style="--darkreader-inline-stroke: #74fec7;"/><polyline id="SvgjsPolyline26438" points="275.59,599.49 272.04,561.43 268.18,529.69 263.56,500.41 258.39,475.2 251.95,451.09 245.08,431.19 236.99,412.6 227.26,394.81 220.04,383.69 211.26,371.75 200.88,359.08 189.46,346.28 170.06,325.98 111.21,266.8 78.6,233.23 38.54,190.6 0.29,148.42" fill="none" stroke="#81fecc" stroke-width="1" data-darkreader-inline-stroke="" style="--darkreader-inline-stroke: #74fec7;"/><polyline id="SvgjsPolyline26439" points="257.02,599.29 252.53,570.78 247.06,542.44 241.5,518.91 234.34,494.19 226.75,472.89 218.41,453.55 208.74,434.85 198.6,418.2 188.81,404.1 177.86,389.9 151.69,359.95 125.76,332.94 44.38,251.07 0.44,205.67" fill="none" stroke="#81fecc" stroke-width="1" data-darkreader-inline-stroke="" style="--darkreader-inline-stroke: #74fec7;"/><polyline id="SvgjsPolyline26440" points="301.4,599.79 302.57,462.51 304.81,386.89 306.34,365.89 308.27,350.41 310.64,338.96 315.94,320.2 321.5,311.78 329.21,302.11 358.63,269.91 380.4,244.4 401.81,217.58 424.91,187.13 451.94,149.89 484.93,102.53 516.72,55.28 552.55,0.43" fill="none" stroke="#81fecc" stroke-width="1" data-darkreader-inline-stroke="" style="--darkreader-inline-stroke: #74fec7;"/><polyline id="SvgjsPolyline26441" points="292.78,599.47 291.14,544.11 289.24,501.26 286.83,464.68 283.86,434.4 280.54,411.24 276.03,389.88 270.43,372.03 263.67,357.12 254.51,342.62 242.13,327.57 167.08,250.42 140.73,221.67 112.41,189.44 57,122.92 0.07,50.61" fill="none" stroke="#81fecc" stroke-width="1" data-darkreader-inline-stroke="" style="--darkreader-inline-stroke: #74fec7;"/><polyline id="SvgjsPolyline26442" points="289.08,599.62 286.81,548.19 284.46,510.82 281.52,477.41 277.84,448.01 273.61,424.2 268.53,403.77 262.7,386.81 254.72,369.89 244.23,353.47 230.96,337.12 215.51,320.6 154.15,258.43 110,211.07 55.02,148.29 0.29,82.22" fill="none" stroke="#81fecc" stroke-width="1" data-darkreader-inline-stroke="" style="--darkreader-inline-stroke: #74fec7;"/><polyline id="SvgjsPolyline26443" points="230.99,599.85 225.11,575.6 218.96,553.83 212.42,533.81 204.69,513.39 196.56,494.81 187.45,476.69 177.37,459.1 166.35,442.08 156.36,428.13 143.4,411.53 113.65,377.46 75.84,338.07 0.41,262.38" fill="none" stroke="#81fecc" stroke-width="1" data-darkreader-inline-stroke="" style="--darkreader-inline-stroke: #74fec7;"/><polyline id="SvgjsPolyline26444" points="318.92,599.87 322.05,557.09 325.41,522.93 329.35,492.77 334.34,464.35 339.9,440.82 346.18,420.72 353.21,403.38 362.59,385.41 368.84,375.52 376.58,364.76 394.66,343.28 412.91,324.04 477.71,258.68 512.22,222.61 556.01,174.92 599.82,125.17" fill="none" stroke="#81fecc" stroke-width="1" data-darkreader-inline-stroke="" style="--darkreader-inline-stroke: #74fec7;"/><polyline id="SvgjsPolyline26445" points="309.88,599.72 311.9,549.06 314.12,510.13 317.03,474.37 320.39,445.7 324.78,419.55 329.73,399.09 335.48,382.1 343.08,365.86 353.58,349.45 367.98,332.02 444.84,253.36 476.71,219.09 504.24,188.25 550.34,134.29 599.62,73.83" fill="none" stroke="#81fecc" stroke-width="1" data-darkreader-inline-stroke="" style="--darkreader-inline-stroke: #74fec7;"/><polyline id="SvgjsPolyline26446" points="297.33,599.68 295.63,483.47 294.25,439.81 292.63,409.44 290.61,386.13 287.45,364.52 283.97,350.12 279.54,338.47 273.3,327.67 260.84,311.71 227.03,277.14 202.71,250.76 174.68,218.29 141.23,177.13 110.67,137.65 77.58,93.25 46.08,49.61 11.56,0.46" fill="none" stroke="#81fecc" stroke-width="1" data-darkreader-inline-stroke="" style="--darkreader-inline-stroke: #74fec7;"/><polyline id="SvgjsPolyline26447" points="305.15,599.55 307.92,495.07 309.72,459.23 312.25,426.57 315.37,401.03 319.14,381.11 323.89,364.63 329.98,350.27 338.73,335.52 346.56,325.81 358.24,313.24 397.72,273.3 419.66,250.04 447.3,219.29 477.23,184.34 503.5,152.42 532.65,115.81 566.95,71.34 599.69,27.64" fill="none" stroke="#81fecc" stroke-width="1" data-darkreader-inline-stroke="" style="--darkreader-inline-stroke: #74fec7;"/><polyline id="SvgjsPolyline26448" points="299.52,599.67 299,442.89 298.03,373.48 296.16,338.44 294.46,326.87 292.13,318.62 289.42,313.01 288.61,310.01 282.33,301.3 275.35,293.04 274.27,290.97 254.27,268.06 237.85,247.24 214.76,215.81 191.21,181.83 164.92,142.18 138.86,101.44 107.61,51.07 76.97,0.32" fill="none" stroke="#81fecc" stroke-width="1" data-darkreader-inline-stroke="" style="--darkreader-inline-stroke: #74fec7;"/><polyline id="SvgjsPolyline26449" points="300.2,599.92 300.91,365.92 301.77,334.73 303.95,309.88 307.92,300.86 315.93,289.74 316.81,287.59 328.46,271.96 336.16,258.4 363.64,213.95 385.57,176.17 430.71,94.18 479.99,0.24" fill="none" stroke="#81fecc" stroke-width="1" data-darkreader-inline-stroke="" style="--darkreader-inline-stroke: #74fec7;"/><polyline id="SvgjsPolyline26450" points="302.73,599.53 304.71,473.97 306.05,435.77 308.12,401.52 310.57,378.25 313.85,359.83 317.52,347.09 324.98,329.08 327.9,324.49 337.3,313.06 376.78,272.06 401.91,244.31 424.21,218.22 450.33,186.18 481.49,146.18 516.05,99.96 552.55,49.35 587,0.15" fill="none" stroke="#81fecc" stroke-width="1" data-darkreader-inline-stroke="" style="--darkreader-inline-stroke: #74fec7;"/><polyline id="SvgjsPolyline26451" points="300.52,599.74 301.06,447.64 302.11,375.11 303.8,342.4 307.91,314.64 310.71,309.14 314.55,303.42 345.77,264.87 362.78,242.53 380.94,217.16 401.6,186.88 427.63,147.05 454.23,104.81 484.71,54.88 516.97,0.55" fill="none" stroke="#81fecc" stroke-width="1" data-darkreader-inline-stroke="" style="--darkreader-inline-stroke: #74fec7;"/><polyline id="SvgjsPolyline26452" points="295.61,599.86 293.14,492.25 291.38,453.29 289.02,420.62 286.04,395.06 282.51,375.88 278.04,360.14 272.54,347.23 265.22,335.26 255.93,323.72 245.87,312.84 206.97,273.43 184.04,248.95 156.56,218.07 126.82,182.95 96.84,146 65.59,106.08 34.46,65.08 0.17,18.65" fill="none" stroke="#81fecc" stroke-width="1" data-darkreader-inline-stroke="" style="--darkreader-inline-stroke: #74fec7;"/><polyline id="SvgjsPolyline26453" points="213.05,599.97 206.6,578.29 200.1,559.09 193.14,540.87 185.75,523.67 177.63,506.81 168.76,490.32 158.74,473.6 147.52,456.71 124.48,426.22 95.93,393.17 60.01,355.21 0.11,294.88" fill="none" stroke="#81fecc" stroke-width="1" data-darkreader-inline-stroke="" style="--darkreader-inline-stroke: #74fec7;"/><polyline id="SvgjsPolyline26454" points="336.5,599.43 340.89,566.96 345.55,539.27 351.14,512.55 357.67,487.66 365.23,464.7 372.86,445.91 382.18,427.03 392.53,409.59 401.79,396.09 411.75,383.08 424.3,368.16 438.45,352.57 460.08,330.08 544.14,245.37 599.65,187.29" fill="none" stroke="#81fecc" stroke-width="1" data-darkreader-inline-stroke="" style="--darkreader-inline-stroke: #74fec7;"/><polyline id="SvgjsPolyline26455" points="327.07,599.33 331.1,560.54 334.92,531.94 340.06,501.96 345.46,477.59 351.59,455.82 359.24,434.54 367.61,416.07 377.51,398.38 386.14,385.39 395.04,373.54 416.96,348.16 435.81,328.42 529.51,233.5 564.88,196.09 599.67,158.15" fill="none" stroke="#81fecc" stroke-width="1" data-darkreader-inline-stroke="" style="--darkreader-inline-stroke: #74fec7;"/><polyline id="SvgjsPolyline26456" points="314.1,599.22 316.51,555.61 319.77,513.62 322.94,484.15 327.41,454.06 332.51,429.63 338.08,410.14 344.76,392.66 353.23,375.97 364.87,358.44 380.3,339.83 398.53,320.57 461.06,257.35 499.6,216.51 550.09,160.16 599.67,101.98" fill="none" stroke="#81fecc" stroke-width="1" data-darkreader-inline-stroke="" style="--darkreader-inline-stroke: #74fec7;"/><polyline id="SvgjsPolyline26457" points="298.74,599.66 297.74,467.84 295.92,393.77 294.6,371.19 292.64,352.57 290.17,339.55 286.76,329.19 283.56,322.95 279.18,316.5 277.02,311.5 259.62,291.65 236.8,267.07 217.54,244.54 192.19,212.88 164.89,176.81 138.35,140.17 106.22,94.11 43.95,0.64" fill="none" stroke="#81fecc" stroke-width="1" data-darkreader-inline-stroke="" style="--darkreader-inline-stroke: #74fec7;"/><polyline id="SvgjsPolyline26458" points="300,599.82 299.95,319.8 299.81,306.54 299.22,301.15 295.68,294.48 295.18,291.42 288.1,275.8 281.33,250.97 244.98,144.7 197.59,0.17" fill="none" stroke="#81fecc" stroke-width="1" data-darkreader-inline-stroke="" style="--darkreader-inline-stroke: #74fec7;"/><polyline id="SvgjsPolyline26459" points="299.9,599.83 299.36,347.89 298.37,319.83 297.69,314.41 295.85,306.87 294.03,303.54 293.19,300.64 288.63,293.69 287.98,291.46 275.58,274.45 266.57,257.16 245.26,220.83 219.99,175.09 180.13,99.11 130.49,0.09" fill="none" stroke="#81fecc" stroke-width="1" data-darkreader-inline-stroke="" style="--darkreader-inline-stroke: #74fec7;"/><polyline id="SvgjsPolyline26460" points="299.82,599.8 299.57,425.08 298.95,352.54 297.58,323.72 296.5,316.79 294.15,308.59 291.62,303.92 283.63,293.64 282.79,291.48 266.65,271.44 236.56,226.82 210.69,185.97 184.51,142.55 159.01,98.73 103.8,0.02" fill="none" stroke="#81fecc" stroke-width="1" data-darkreader-inline-stroke="" style="--darkreader-inline-stroke: #74fec7;"/><polyline id="SvgjsPolyline26461" points="300,599.27 299.89,301.31 302.06,293.98 302.18,291.65 305.64,277.24 309.43,249.42 354.11,0.68" fill="none" stroke="#81fecc" stroke-width="1" data-darkreader-inline-stroke="" style="--darkreader-inline-stroke: #74fec7;"/><polyline id="SvgjsPolyline26462" points="300.05,454.75 300.24,331.51 301.16,302.7 301.78,300.54 305.92,294.15 306.58,291.13 314.75,276.05 322.15,253.86 342.83,204.17 364.89,149.15 422.09,0.66" fill="none" stroke="#81fecc" stroke-width="1" data-darkreader-inline-stroke="" style="--darkreader-inline-stroke: #74fec7;"/><polyline id="SvgjsPolyline26463" points="300.08,599.57 300.4,360.9 300.85,329.7 302.05,307.12 303.11,303.44 306.28,298.37 309.84,290.85 320.14,275.23 328.97,255.26 348.78,217.21 373.33,167.57 409.37,91.43 450.84,0.61" fill="none" stroke="#81fecc" stroke-width="1" data-darkreader-inline-stroke="" style="--darkreader-inline-stroke: #74fec7;"/><polyline id="SvgjsPolyline26464" points="194.73,599.56 182.09,565.15 174.4,547.24 166.69,531.04 150.21,500.94 141.56,487.03 129.75,469.6 105.62,437.98 78.14,406.07 47.8,373.57 0.24,325.16" fill="none" stroke="#81fecc" stroke-width="1" data-darkreader-inline-stroke="" style="--darkreader-inline-stroke: #74fec7;"/><polyline id="SvgjsPolyline26465" points="354.17,599.24 359.55,571.68 365.23,547.38 371.5,524.84 378.87,502.63 386.59,483.04 395.81,463.24 404.74,446.79 415.89,428.93 426.23,414.27 438.2,398.88 450.78,383.98 468.05,364.9 496.17,335.67 599.99,231.01" fill="none" stroke="#81fecc" stroke-width="1" data-darkreader-inline-stroke="" style="--darkreader-inline-stroke: #74fec7;"/><polyline id="SvgjsPolyline26466" points="345.8,599.93 350.84,569.93 356.34,543.19 362.4,518.98 369.2,496.59 377.31,474.64 384.87,457.52 394.21,439.53 404.75,422.2 415.44,406.84 426.42,392.65 438.99,377.75 455.23,359.84 480.11,333.98 554.94,258.79 599.56,212.96" fill="none" stroke="#81fecc" stroke-width="1" data-darkreader-inline-stroke="" style="--darkreader-inline-stroke: #74fec7;"/><polyline id="SvgjsPolyline26467" points="300,599.54 299.95,300.8 297.3,276.86 295.48,248.84 273.69,0.19" fill="none" stroke="#81fecc" stroke-width="1" data-darkreader-inline-stroke="" style="--darkreader-inline-stroke: #74fec7;"/><polyline id="SvgjsPolyline26468" points="300,319.03 299.95,301.87 293.23,277.28 288.97,251.11 235.36,0.15" fill="none" stroke="#81fecc" stroke-width="1" data-darkreader-inline-stroke="" style="--darkreader-inline-stroke: #74fec7;"/><polyline id="SvgjsPolyline26469" points="299.98,599.75 299.88,337.67 299.65,314.27 298.82,304.18 293.05,294.44 292.29,291.45 282.7,275.39 274.93,254.99 247.46,195.51 217.97,128.38 164.08,0.42" fill="none" stroke="#81fecc" stroke-width="1" data-darkreader-inline-stroke="" style="--darkreader-inline-stroke: #74fec7;"/><polyline id="SvgjsPolyline26470" points="300,599.68 299.96,325.9 299.54,303.29 296.57,293.92 296.36,291.59 290.95,276.96 284.96,249.54 256.5,147.35 216.8,0.52" fill="none" stroke="#81fecc" stroke-width="1" data-darkreader-inline-stroke="" style="--darkreader-inline-stroke: #74fec7;"/><polyline id="SvgjsPolyline26471" points="300,599.97 300.08,302.79 313.99,0.48" fill="none" stroke="#81fecc" stroke-width="1" data-darkreader-inline-stroke="" style="--darkreader-inline-stroke: #74fec7;"/><polyline id="SvgjsPolyline26472" points="300.05,373.62 300.24,315.9 301,300.41 309.78,276.56 315.94,249.97 346.61,145.98 388.15,0.47" fill="none" stroke="#81fecc" stroke-width="1" data-darkreader-inline-stroke="" style="--darkreader-inline-stroke: #74fec7;"/><polyline id="SvgjsPolyline26473" points="300,326.64 299.95,300.91 303.48,277.11 305.84,249.13 334,0.34" fill="none" stroke="#81fecc" stroke-width="1" data-darkreader-inline-stroke="" style="--darkreader-inline-stroke: #74fec7;"/><polyline id="SvgjsPolyline26474" points="176.16,599.33 163.26,568.38 148.03,537.63 131.55,509.33 113.29,482.13 92.54,454.8 68.44,426.15 40.08,395.01 0.54,354.04" fill="none" stroke="#81fecc" stroke-width="1" data-darkreader-inline-stroke="" style="--darkreader-inline-stroke: #74fec7;"/><polyline id="SvgjsPolyline26475" points="371.96,599.3 377.46,577.36 384.45,553.4 391.22,533.46 399.19,513.13 406.53,496.76 416.48,477.32 426.31,460.48 436.53,444.8 446.52,430.85 458.98,414.85 488.12,381.28 526.94,340.7 599.61,267.77" fill="none" stroke="#81fecc" stroke-width="1" data-darkreader-inline-stroke="" style="--darkreader-inline-stroke: #74fec7;"/><polyline id="SvgjsPolyline26476" points="300.03,302.63 293.82,0.08" fill="none" stroke="#81fecc" stroke-width="1" data-darkreader-inline-stroke="" style="--darkreader-inline-stroke: #74fec7;"/><polyline id="SvgjsPolyline26477" points="299.93,304.04 299.81,300.93 295.48,278.14 292.09,248.69 254.73,0.33" fill="none" stroke="#81fecc" stroke-width="1" data-darkreader-inline-stroke="" style="--darkreader-inline-stroke: #74fec7;"/><polyline id="SvgjsPolyline26478" points="157.61,599.95 144.18,570.93 130.61,545.46 115.69,520.76 97.69,494.33 79.33,470.08 56.95,443.05 32.03,415.1 0.44,381.64" fill="none" stroke="#81fecc" stroke-width="1" data-darkreader-inline-stroke="" style="--darkreader-inline-stroke: #74fec7;"/><polyline id="SvgjsPolyline26479" points="389.9,599.58 396.05,579.45 403.22,558.81 410.95,539.23 418.24,522.83 427.27,504.68 435.2,490.35 446.2,472.39 456.24,457.53 479.39,427.12 507.46,394.69 541.74,358.4 599.96,299.69" fill="none" stroke="#81fecc" stroke-width="1" data-darkreader-inline-stroke="" style="--darkreader-inline-stroke: #74fec7;"/><polyline id="SvgjsPolyline26480" points="138.48,599.92 126.94,576.92 113.98,553.78 99.54,530.62 83.15,506.86 66.24,484.45 47.02,460.87 26.55,437.33 0.17,408.61" fill="none" stroke="#81fecc" stroke-width="1" data-darkreader-inline-stroke="" style="--darkreader-inline-stroke: #74fec7;"/><polyline id="SvgjsPolyline26481" points="408.22,599.33 415.08,580.24 422.34,562.14 436.45,531.72 453.1,501.72 472.79,471.74 494.96,442.54 521.26,411.67 552.54,377.92 599.48,330" fill="none" stroke="#81fecc" stroke-width="1" data-darkreader-inline-stroke="" style="--darkreader-inline-stroke: #74fec7;"/><polyline id="SvgjsPolyline26482" points="119.03,599.94 107.89,579.36 97.19,561.22 85.02,542.16 70.37,520.99 55.91,501.61 39.88,481.47 20.75,458.84 0.52,436.12" fill="none" stroke="#81fecc" stroke-width="1" data-darkreader-inline-stroke="" style="--darkreader-inline-stroke: #74fec7;"/><polyline id="SvgjsPolyline26483" points="426.54,599.96 438.64,571.2 453.89,540.46 470.78,511.49 489.05,484.31 509.31,457.58 533.88,428.31 564.35,394.87 599.53,358.37" fill="none" stroke="#81fecc" stroke-width="1" data-darkreader-inline-stroke="" style="--darkreader-inline-stroke: #74fec7;"/><polyline id="SvgjsPolyline26484" points="99.23,599.93 78.41,565.13 57.35,534.18 31.85,500.66 0.22,463.06" fill="none" stroke="#81fecc" stroke-width="1" data-darkreader-inline-stroke="" style="--darkreader-inline-stroke: #74fec7;"/><polyline id="SvgjsPolyline26485" points="445.37,599.97 458.63,571.73 472.3,546.32 488.58,519.71 504.01,497.19 523.3,471.69 545.18,445.25 570.6,416.71 599.47,386.04" fill="none" stroke="#81fecc" stroke-width="1" data-darkreader-inline-stroke="" style="--darkreader-inline-stroke: #74fec7;"/><polyline id="SvgjsPolyline26486" points="79.05,599.87 61.68,572.1 43.51,545.79 23.33,519 0.17,490.58" fill="none" stroke="#81fecc" stroke-width="1" data-darkreader-inline-stroke="" style="--darkreader-inline-stroke: #74fec7;"/><polyline id="SvgjsPolyline26487" points="464.82,599.38 477.99,573.7 490.01,552.72 503.74,530.96 519.75,507.89 537.18,484.89 553.93,464.33 573.83,441.32 599.61,413.1" fill="none" stroke="#81fecc" stroke-width="1" data-darkreader-inline-stroke="" style="--darkreader-inline-stroke: #74fec7;"/><polyline id="SvgjsPolyline26488" points="58.48,599.7 32.85,561.49 16.62,539.54 0.23,518.69" fill="none" stroke="#81fecc" stroke-width="1" data-darkreader-inline-stroke="" style="--darkreader-inline-stroke: #74fec7;"/><polyline id="SvgjsPolyline26489" points="484.27,599.52 495.52,579 507.55,558.94 519.01,541.27 532.4,522.08 547.36,502.1 562.93,482.59 599.69,440.14" fill="none" stroke="#81fecc" stroke-width="1" data-darkreader-inline-stroke="" style="--darkreader-inline-stroke: #74fec7;"/><polyline id="SvgjsPolyline26490" points="37.5,599.39 20.28,574.31 0.28,547.39" fill="none" stroke="#81fecc" stroke-width="1" data-darkreader-inline-stroke="" style="--darkreader-inline-stroke: #74fec7;"/><polyline id="SvgjsPolyline26491" points="504.07,599.63 523.78,566.89 545.77,534.69 570.36,502.44 599.92,467.17" fill="none" stroke="#81fecc" stroke-width="1" data-darkreader-inline-stroke="" style="--darkreader-inline-stroke: #74fec7;"/><polyline id="SvgjsPolyline26492" points="16.5,599.52 0.23,576.64" fill="none" stroke="#81fecc" stroke-width="1" data-darkreader-inline-stroke="" style="--darkreader-inline-stroke: #74fec7;"/><polyline id="SvgjsPolyline26493" points="524.24,599.67 539.58,575.22 558.62,547.61 579.28,520.21 599.94,494.79" fill="none" stroke="#81fecc" stroke-width="1" data-darkreader-inline-stroke="" style="--darkreader-inline-stroke: #74fec7;"/><polyline id="SvgjsPolyline26494" points="544.81,599.58 557.19,580.65 571.03,560.83 599.87,522.99" fill="none" stroke="#81fecc" stroke-width="1" data-darkreader-inline-stroke="" style="--darkreader-inline-stroke: #74fec7;"/><polyline id="SvgjsPolyline26495" points="565.38,599.98 581.29,576.85 599.84,551.76" fill="none" stroke="#81fecc" stroke-width="1" data-darkreader-inline-stroke="" style="--darkreader-inline-stroke: #74fec7;"/><polyline id="SvgjsPolyline26496" points="586.81,599.54 599.91,581.1" fill="none" stroke="#81fecc" stroke-width="1" data-darkreader-inline-stroke="" style="--darkreader-inline-stroke: #74fec7;"/></g></svg>