<?xml version="1.0" standalone="no"?>
<svg id="SvgjsSvg1001" width="600" height="600" xmlns="http://www.w3.org/2000/svg" version="1.1" xmlns:xlink="http://www.w3.org/1999/xlink" xmlns:svgjs="http://svgjs.com/svgjs" class="svg-paper" viewBox="0 0 600 600"><title id="SvgjsTitle12596">x=sin(x)|y=(x+x)|dTest=0.0|sd=0.3|sm=0.1|ts=0.0 | generated with FlowLines</title><rect id="SvgjsRect12597" width="600" height="600" fill="#050a08" data-darkreader-inline-fill="" style="--darkreader-inline-fill: #040806;"/><g id="SvgjsG12598"><polyline id="SvgjsPolyline12599" points="0.07,67.37 6.96,137.23 14.64,211.71 42.93,474.61 50.7,549.09 55.6,597.98" fill="none" stroke="#81fecc" stroke-width="1" data-darkreader-inline-stroke="" style="--darkreader-inline-stroke: #74fec7;"/><polyline id="SvgjsPolyline12600" points="8.59,0.73 17.57,86.84 40.43,298.55 50.68,396.3 56.73,456.83 61.4,505.75 66.05,557.02 69.65,598.99" fill="none" stroke="#81fecc" stroke-width="1" data-darkreader-inline-stroke="" style="--darkreader-inline-stroke: #74fec7;"/><polyline id="SvgjsPolyline12601" points="0.1,220.3 6.98,290.16 14.17,359.99 39.97,599.63" fill="none" stroke="#81fecc" stroke-width="1" data-darkreader-inline-stroke="" style="--darkreader-inline-stroke: #74fec7;"/><polyline id="SvgjsPolyline12602" points="24.11,1.5 37.73,127.12 46.64,210.89 54.02,283.05 59.47,338.95 65.68,406.52 70.47,462.48 75.45,525.46 80.62,597.82" fill="none" stroke="#81fecc" stroke-width="1" data-darkreader-inline-stroke="" style="--darkreader-inline-stroke: #74fec7;"/><polyline id="SvgjsPolyline12603" points="0.12,373.24 10.32,475.69 23.37,599.03" fill="none" stroke="#81fecc" stroke-width="1" data-darkreader-inline-stroke="" style="--darkreader-inline-stroke: #74fec7;"/><polyline id="SvgjsPolyline12604" points="39.63,2.17 50.4,104.57 57.37,174.42 63.72,241.98 70.01,314.25 75.56,384.23 80.56,454.25 85.01,524.31 89.17,599.08" fill="none" stroke="#81fecc" stroke-width="1" data-darkreader-inline-stroke="" style="--darkreader-inline-stroke: #74fec7;"/><polyline id="SvgjsPolyline12605" points="0.14,526.18 7.26,598.37" fill="none" stroke="#81fecc" stroke-width="1" data-darkreader-inline-stroke="" style="--darkreader-inline-stroke: #74fec7;"/><polyline id="SvgjsPolyline12606" points="54.91,0.54 62.49,79.73 68.88,151.99 75.07,228.96 80.28,301.31 84.48,366.7 88.71,441.46 92.37,516.25 95.77,598.08" fill="none" stroke="#81fecc" stroke-width="1" data-darkreader-inline-stroke="" style="--darkreader-inline-stroke: #74fec7;"/><polyline id="SvgjsPolyline12607" points="70.42,1.35 75.41,64.33 80.74,139.02 85.17,209.08 89.19,281.51 92.78,356.31 95.68,426.45 98.62,510.64 101.17,599.52" fill="none" stroke="#81fecc" stroke-width="1" data-darkreader-inline-stroke="" style="--darkreader-inline-stroke: #74fec7;"/><polyline id="SvgjsPolyline12608" points="85.73,0.09 89.8,74.86 93,142.64 95.69,208.11 98.1,275.92 100.56,357.79 102.38,430.3 104.09,512.18 105.56,598.75" fill="none" stroke="#81fecc" stroke-width="1" data-darkreader-inline-stroke="" style="--darkreader-inline-stroke: #74fec7;"/><polyline id="SvgjsPolyline12609" points="101.2,1.53 102.77,67.03 104.15,134.88 106.25,265.9 108.09,432.03 109.29,598.17" fill="none" stroke="#81fecc" stroke-width="1" data-darkreader-inline-stroke="" style="--darkreader-inline-stroke: #74fec7;"/><polyline id="SvgjsPolyline12610" points="116.56,1.14 115.04,132.17 114.02,258.52 113.25,394.24 112.52,597.82" fill="none" stroke="#81fecc" stroke-width="1" data-darkreader-inline-stroke="" style="--darkreader-inline-stroke: #74fec7;"/><polyline id="SvgjsPolyline12611" points="131.91,1.35 128.85,57.42 125.98,120.54 123.61,183.67 121.45,253.84 119.48,333.38 117.87,415.26 116.53,501.83 115.38,597.76" fill="none" stroke="#81fecc" stroke-width="1" data-darkreader-inline-stroke="" style="--darkreader-inline-stroke: #74fec7;"/><polyline id="SvgjsPolyline12612" points="147.25,2.26 144.31,30.19 141.85,55.81 139.2,86.11 136.8,116.44 134.31,151.45 132.51,179.47 130.47,214.51 128.53,251.9 125.53,319.7 123.71,368.8 122.42,408.56 119.81,506.81 117.97,598.05" fill="none" stroke="#81fecc" stroke-width="1" data-darkreader-inline-stroke="" style="--darkreader-inline-stroke: #74fec7;"/><polyline id="SvgjsPolyline12613" points="162.89,1.63 158.18,31.69 154.25,59.49 150.68,87.34 147.18,117.56 144.48,143.16 141.16,178.1 138.2,213.08 135.56,248.08 133.35,280.76 130.96,320.47 128.73,362.53 126.67,406.94 124.87,451.37 123.22,498.14 121.78,544.91 120.35,598.72" fill="none" stroke="#81fecc" stroke-width="1" data-darkreader-inline-stroke="" style="--darkreader-inline-stroke: #74fec7;"/><polyline id="SvgjsPolyline12614" points="178.55,1.85 172.74,29.33 167.89,54.6 163.06,82.27 157.99,114.63 153.46,147.08 149.41,179.58 145.3,216.8 142.32,247.07 138.85,286.7 136.14,321.69 133.72,356.71 131.15,398.75 128.55,447.82 126.12,501.59 124.22,550.69 122.58,599.8" fill="none" stroke="#81fecc" stroke-width="1" data-darkreader-inline-stroke="" style="--darkreader-inline-stroke: #74fec7;"/><polyline id="SvgjsPolyline12615" points="194.79,0.67 187.54,27.8 180.4,57.37 174.43,84.81 168.57,114.66 163.68,142.31 158.54,174.66 153.34,211.74 149.03,246.57 145.21,281.46 141.59,318.73 138.21,358.36 135.24,398.03 132.48,440.06 129.69,489.12 127.19,540.54 124.79,598.99" fill="none" stroke="#81fecc" stroke-width="1" data-darkreader-inline-stroke="" style="--darkreader-inline-stroke: #74fec7;"/><polyline id="SvgjsPolyline12616" points="211.05,0.38 202.46,27.11 194.56,54.06 187.33,81.19 183.41,97.09 179.69,113.04 172.85,145.08 167.15,174.96 161.64,207.25 156.39,241.96 152.03,274.43 147.35,313.93 143.26,353.5 139.28,397.78 136.01,439.77 132.57,491.14 129.77,540.2 126.95,598.63" fill="none" stroke="#81fecc" stroke-width="1" data-darkreader-inline-stroke="" style="--darkreader-inline-stroke: #74fec7;"/><polyline id="SvgjsPolyline12617" points="227.28,0.89 221.5,16.22 215.94,31.63 211.37,44.91 206.26,60.47 198.05,87.32 194.2,100.82 189.92,116.63 185.86,132.5 181.48,150.7 174.45,182.7 168.59,212.55 165.68,228.67 162.17,249.43 156.86,284.13 151.86,321.23 147.46,358.41 143.13,400.31 139.17,444.59 135.58,491.25 132.63,535.62 129.1,598.7" fill="none" stroke="#81fecc" stroke-width="1" data-darkreader-inline-stroke="" style="--darkreader-inline-stroke: #74fec7;"/><polyline id="SvgjsPolyline12618" points="243.43,2.12 237.08,17.22 230.93,32.4 220.91,58.63 215.38,74.05 210.09,89.55 205.04,105.13 200.22,120.79 195.64,136.51 191.29,152.31 183.79,181.79 179.54,200.02 176.03,216.02 172.25,234.35 169.14,250.43 163.42,282.69 160.43,301.17 157.29,321.99 154.37,342.85 151.65,363.73 147.02,403.24 144.57,426.51 142.09,452.13 138.27,496.43 134.33,550.1 131.28,599.15" fill="none" stroke="#81fecc" stroke-width="1" data-darkreader-inline-stroke="" style="--darkreader-inline-stroke: #74fec7;"/><polyline id="SvgjsPolyline12619" points="260.48,1.8 251.75,20.96 245.14,35.95 233.4,64.01 227.38,79.25 221.59,94.57 216.03,109.98 210.71,125.47 206.34,138.81 201.46,154.45 196.82,170.16 192.41,185.93 187.64,204.03 183.7,219.93 179.45,238.17 175.95,254.17 172.18,272.5 168.64,290.88 164.93,311.61 161.84,330.08 158.6,350.89 155.91,369.41 150.74,408.86 145.73,453.03 142.93,480.97 140.79,504.27 136.97,550.92 133.54,599.94" fill="none" stroke="#81fecc" stroke-width="1" data-darkreader-inline-stroke="" style="--darkreader-inline-stroke: #74fec7;"/><polyline id="SvgjsPolyline12620" points="277.48,1.96 269.33,18.81 258.38,42.11 245.01,72.01 237.7,89.25 231.53,104.42 225.58,119.68 220.66,132.83 215.15,148.25 209.86,163.76 204.82,179.34 200.02,195 196.08,208.48 191.1,226.53 186.98,242.38 182.54,260.56 178.36,278.81 174.44,297.12 170.76,315.47 167.31,333.87 163.3,356.92 160.68,373.09 154.9,412.45 149.86,451.91 144.97,496.1 140.35,545.02 136.08,598.67" fill="none" stroke="#81fecc" stroke-width="1" data-darkreader-inline-stroke="" style="--darkreader-inline-stroke: #74fec7;"/><polyline id="SvgjsPolyline12621" points="295.46,0.32 274.73,42.28 258.69,76.11 250.95,93.16 244.37,108.16 237.98,123.24 231.8,138.41 225.84,153.67 220.11,169.01 213.85,186.65 209.36,199.95 203.64,217.78 198.89,233.46 193.75,251.46 189.49,267.27 184.34,287.69 181.1,301.35 177.51,317.33 173.64,335.65 169.58,356.31 166.2,374.73 163.42,390.87 159.36,416.29 155.64,441.76 153.44,457.99 148.32,499.8 145.77,523.06 142.97,551 138.65,599.95" fill="none" stroke="#81fecc" stroke-width="1" data-darkreader-inline-stroke="" style="--darkreader-inline-stroke: #74fec7;"/><polyline id="SvgjsPolyline12622" points="299.79,26.03 312.32,0.9" fill="none" stroke="#81fecc" stroke-width="1" data-darkreader-inline-stroke="" style="--darkreader-inline-stroke: #74fec7;"/><polyline id="SvgjsPolyline12623" points="300.99,23.88 278.1,69.99 262.92,101.64 248.38,133.58 241.87,148.61 235.56,163.73 224.42,192.03 219.54,205.2 212.55,225.06 208.11,238.38 203.15,253.99 198.42,269.68 193.93,285.43 188.49,305.77 184.5,321.66 180.73,337.6 177.16,353.59 173.31,371.91 170.14,387.98 166.73,406.38 163.15,427.14 159.46,450.24 156.72,468.76 153.53,491.94 150.87,512.83 146.09,554.68 141.73,598.93" fill="none" stroke="#81fecc" stroke-width="1" data-darkreader-inline-stroke="" style="--darkreader-inline-stroke: #74fec7;"/><polyline id="SvgjsPolyline12624" points="299.99,60.13 317.7,24.52 328.97,1.38" fill="none" stroke="#81fecc" stroke-width="1" data-darkreader-inline-stroke="" style="--darkreader-inline-stroke: #74fec7;"/><polyline id="SvgjsPolyline12625" points="300.24,59.99 280.46,99.8 264.2,133.53 251.5,161.17 244.9,176.17 237.6,193.4 232.3,206.4 226.32,221.65 220.57,236.99 215.83,250.21 206.87,276.82 201.29,294.68 196.65,310.4 192.25,326.17 188.07,342.01 180.88,371.57 173.91,403.58 170.71,419.64 166.85,440.34 160.64,477.26 157.15,500.4 154.55,518.94 149.55,558.41 145.19,597.94" fill="none" stroke="#81fecc" stroke-width="1" data-darkreader-inline-stroke="" style="--darkreader-inline-stroke: #74fec7;"/><polyline id="SvgjsPolyline12626" points="299.13,96.33 325.09,43.91 335.2,22.8 345.03,1.57" fill="none" stroke="#81fecc" stroke-width="1" data-darkreader-inline-stroke="" style="--darkreader-inline-stroke: #74fec7;"/><polyline id="SvgjsPolyline12627" points="300.56,94.01 278.7,138.02 264.5,167.54 250.83,197.31 239.67,223.08 229.11,249.1 219.21,275.38 210,301.9 204.95,317.48 200.81,330.9 196.2,346.62 192.43,360.14 188.83,373.71 184.27,391.87 177.45,421.51 171.29,451.3 164.94,485.82 159.67,518.15 154.33,555.21 151.91,573.77 148.82,599.33" fill="none" stroke="#81fecc" stroke-width="1" data-darkreader-inline-stroke="" style="--darkreader-inline-stroke: #74fec7;"/><polyline id="SvgjsPolyline12628" points="299.33,130.44 320.15,88.53 335.38,56.91 349.06,27.14 360.22,1.37" fill="none" stroke="#81fecc" stroke-width="1" data-darkreader-inline-stroke="" style="--darkreader-inline-stroke: #74fec7;"/><polyline id="SvgjsPolyline12629" points="300.86,128.03 282.1,165.74 267.8,195.21 257.87,216.4 244.52,246.32 233.69,272.22 227.66,287.45 221.86,302.77 212.46,329.23 205.16,351.46 201.01,364.88 196.39,380.59 189.59,405.42 185.55,421.29 181.72,437.22 176.11,462.34 169.65,494.45 166.27,512.86 163.1,531.31 158.37,561.36 153.19,598.44" fill="none" stroke="#81fecc" stroke-width="1" data-darkreader-inline-stroke="" style="--darkreader-inline-stroke: #74fec7;"/><polyline id="SvgjsPolyline12630" points="299.53,164.55 325.47,112.12 335.57,91.01 343.46,74.03 352.08,54.82 359.49,37.62 366.63,20.32 374.32,0.72" fill="none" stroke="#81fecc" stroke-width="1" data-darkreader-inline-stroke="" style="--darkreader-inline-stroke: #74fec7;"/><polyline id="SvgjsPolyline12631" points="300.12,164.14 281.36,201.86 267.08,231.34 255.23,256.8 244.79,280.32 234.82,304.05 225.39,328 216.52,352.16 208.23,376.53 200.53,401.09 194.03,423.57 187.42,448.45 180.29,478.02 174.8,503.17 168.48,535.31 163.21,565.27 157.79,599.95" fill="none" stroke="#81fecc" stroke-width="1" data-darkreader-inline-stroke="" style="--darkreader-inline-stroke: #74fec7;"/><polyline id="SvgjsPolyline12632" points="299.72,198.65 316.4,165.13 328.71,139.9 339.72,116.63 351.31,91.05 360.56,69.56 370.25,45.72 378.58,23.85 386.44,1.81" fill="none" stroke="#81fecc" stroke-width="1" data-darkreader-inline-stroke="" style="--darkreader-inline-stroke: #74fec7;"/><polyline id="SvgjsPolyline12633" points="300.41,198.16 283.72,231.68 270.39,259.02 259.41,282.3 248.8,305.75 238.64,329.4 228.99,353.27 220.7,375.15 212.13,399.42 204.15,423.89 198.06,444.05 191.13,468.84 184.75,493.77 179.4,516.55 173.52,544.01 167.75,573.88 163.32,599.23" fill="none" stroke="#81fecc" stroke-width="1" data-darkreader-inline-stroke="" style="--darkreader-inline-stroke: #74fec7;"/><polyline id="SvgjsPolyline12634" points="299.91,232.76 320.72,190.84 334.94,161.33 348.63,131.57 358.91,107.97 368.69,84.16 374.63,68.89 379.54,55.74 388.84,29.25 393.23,15.91 398.12,0.28" fill="none" stroke="#81fecc" stroke-width="1" data-darkreader-inline-stroke="" style="--darkreader-inline-stroke: #74fec7;"/><polyline id="SvgjsPolyline12635" points="300.7,232.19 282.97,267.8 272.7,288.82 260.67,314.19 250.96,335.49 242.53,354.79 232.68,378.56 225.85,395.99 217.74,417.94 210.84,437.84 203.65,460.11 196.29,484.77 190.69,505.07 185.46,525.47 180.06,548.24 174.59,573.39 169.58,598.64" fill="none" stroke="#81fecc" stroke-width="1" data-darkreader-inline-stroke="" style="--darkreader-inline-stroke: #74fec7;"/><polyline id="SvgjsPolyline12636" points="299.05,268.96 320.91,224.94 336.12,193.31 350.71,161.39 357.24,146.37 364.47,129.1 371.42,111.72 378.07,94.22 382.86,81.02 388.23,65.55 393.36,49.99 398.25,34.36 402.91,18.65 407.95,0.62" fill="none" stroke="#81fecc" stroke-width="1" data-darkreader-inline-stroke="" style="--darkreader-inline-stroke: #74fec7;"/><polyline id="SvgjsPolyline12637" points="301,266.21 274.02,320.73 261.94,346.08 254.12,363.09 246.51,380.2 238.25,399.57 232.06,414.73 224.43,434.36 217.18,454.13 211.06,471.82 205.25,489.62 198.43,512 192.08,534.53 187.33,552.63 181.79,575.37 176.67,598.2" fill="none" stroke="#81fecc" stroke-width="1" data-darkreader-inline-stroke="" style="--darkreader-inline-stroke: #74fec7;"/><polyline id="SvgjsPolyline12638" points="299.26,303.07 325.21,250.64 334.32,231.65 343.21,212.56 351.84,193.35 358.34,178.31 365.53,161.03 372.43,143.63 379.04,126.11 385.34,108.49 390.6,92.97 396.32,75.15 401.73,57.23 406.84,39.22 411.65,21.13 416.72,0.69" fill="none" stroke="#81fecc" stroke-width="1" data-darkreader-inline-stroke="" style="--darkreader-inline-stroke: #74fec7;"/><polyline id="SvgjsPolyline12639" points="300.28,302.32 275.35,352.64 266.23,371.63 258.3,388.58 248.68,409.91 242.16,424.94 235.84,440.05 228.88,457.43 222.22,474.92 216.63,490.32 210.54,508.02 204.76,525.83 199.29,543.73 194.13,561.72 188.67,582.06 184.68,597.95" fill="none" stroke="#81fecc" stroke-width="1" data-darkreader-inline-stroke="" style="--darkreader-inline-stroke: #74fec7;"/><polyline id="SvgjsPolyline12640" points="299.46,337.17 316.14,303.66 328.46,278.42 337.5,259.4 346.3,240.27 353.89,223.16 362.14,203.78 370.04,184.26 377.57,164.59 384.72,144.78 390.74,127.06 397.83,104.76 403.16,86.81 408.79,66.52 414.62,43.86 418.97,25.65 424.52,0.51" fill="none" stroke="#81fecc" stroke-width="1" data-darkreader-inline-stroke="" style="--darkreader-inline-stroke: #74fec7;"/><polyline id="SvgjsPolyline12641" points="300.59,336.34 279.76,378.25 262.54,414.1 248.96,443.92 241.52,461.09 235.22,476.21 229.14,491.42 222.46,508.91 217.65,522.1 212.26,537.57 207.83,550.89 202.88,566.51 198.17,582.19 193.69,597.95" fill="none" stroke="#81fecc" stroke-width="1" data-darkreader-inline-stroke="" style="--darkreader-inline-stroke: #74fec7;"/><polyline id="SvgjsPolyline12642" points="299.66,371.28 316.34,337.76 329.67,310.42 340.65,287.14 349.36,267.96 358.69,246.51 366.74,227.04 374.43,207.44 382.53,185.49 388.66,167.8 395.89,145.54 403.28,120.89 409.51,98.33 415.28,75.66 420.63,52.88 426.51,25.42 431.42,0.15" fill="none" stroke="#81fecc" stroke-width="1" data-darkreader-inline-stroke="" style="--darkreader-inline-stroke: #74fec7;"/><polyline id="SvgjsPolyline12643" points="300.89,370.36 281.1,410.16 264.82,443.88 252.1,471.51 240.87,497.25 235.48,510.21 229.39,525.42 220.27,549.49 212.48,571.55 203.78,598.25" fill="none" stroke="#81fecc" stroke-width="1" data-darkreader-inline-stroke="" style="--darkreader-inline-stroke: #74fec7;"/><polyline id="SvgjsPolyline12644" points="299.86,405.39 318.61,367.67 332.89,338.19 343.77,314.86 353.32,293.5 362.48,271.97 372.07,248.08 379.5,228.38 387.3,206.32 394.62,184.09 402.76,157.22 408.42,136.93 415.39,109.73 421.24,84.66 426.6,59.49 431.51,34.22 437.16,1.95" fill="none" stroke="#81fecc" stroke-width="1" data-darkreader-inline-stroke="" style="--darkreader-inline-stroke: #74fec7;"/><polyline id="SvgjsPolyline12645" points="300.15,406.47 281.39,444.18 271.15,465.22 259.16,490.61 248.56,514.07 240.22,533.41 231.35,555.06 222.93,576.89 214.99,598.9" fill="none" stroke="#81fecc" stroke-width="1" data-darkreader-inline-stroke="" style="--darkreader-inline-stroke: #74fec7;"/><polyline id="SvgjsPolyline12646" points="299.01,441.59 318.8,401.78 332.07,374.4 344.92,346.83 356.28,321.15 367.07,295.23 376.4,271.24 384.38,249.25 392.61,224.86 400.91,198.03 407.92,173.27 413.81,150.62 420.82,121.02 427.15,91.27 432.43,63.69 437.61,33.71 442.61,1.34" fill="none" stroke="#81fecc" stroke-width="1" data-darkreader-inline-stroke="" style="--darkreader-inline-stroke: #74fec7;"/><polyline id="SvgjsPolyline12647" points="300.46,440.49 275.53,490.81 266.41,509.79 257.5,528.87 248.85,548.07 241.41,565.25 234.23,582.54 227.34,599.95" fill="none" stroke="#81fecc" stroke-width="1" data-darkreader-inline-stroke="" style="--darkreader-inline-stroke: #74fec7;"/><polyline id="SvgjsPolyline12648" points="299.2,475.7 318.99,435.88 334.26,404.28 347.02,376.67 358.29,350.95 368.97,324.98 378.99,298.75 388.33,272.27 396.28,247.79 400.37,234.35 404.92,218.62 412.2,191.5 418.84,164.22 425.36,134.5 431.24,104.66 436.92,72.4 442.67,35.4 447.43,0.62" fill="none" stroke="#81fecc" stroke-width="1" data-darkreader-inline-stroke="" style="--darkreader-inline-stroke: #74fec7;"/><polyline id="SvgjsPolyline12649" points="300.77,474.51 279.94,516.42 265.7,545.92 252.94,573.53 241.68,599.25" fill="none" stroke="#81fecc" stroke-width="1" data-darkreader-inline-stroke="" style="--darkreader-inline-stroke: #74fec7;"/><polyline id="SvgjsPolyline12650" points="299.4,509.8 321.24,465.79 335.45,436.27 349.12,406.5 361.19,378.57 369.99,356.89 375.88,341.61 380.75,328.44 386.21,313 390.7,299.69 399.15,272.92 403.12,259.45 408.15,241.42 415.7,211.95 419.46,196.01 423.02,180.02 429.58,147.92 435.04,118 441.02,81.04 446.58,41.65 451.43,2.17" fill="none" stroke="#81fecc" stroke-width="1" data-darkreader-inline-stroke="" style="--darkreader-inline-stroke: #74fec7;"/><polyline id="SvgjsPolyline12651" points="300.03,510.62 276.13,558.84 265.99,579.93 257.09,599.02" fill="none" stroke="#81fecc" stroke-width="1" data-darkreader-inline-stroke="" style="--darkreader-inline-stroke: #74fec7;"/><polyline id="SvgjsPolyline12652" points="299.6,543.91 322.47,497.79 335.64,470.37 342.55,455.52 350.25,438.46 362.26,410.51 368.43,395.33 374.38,380.07 379.3,366.92 384.82,351.5 388.62,340.44 394.44,322.64 399.28,307 403.89,291.28 408.87,273.23 412.99,257.38 416.9,241.47 420.6,225.52 427.41,193.47 430.97,175.1 434.31,156.68 440.38,119.73 445.4,84.99 450.68,43.21 455.25,1.34" fill="none" stroke="#81fecc" stroke-width="1" data-darkreader-inline-stroke="" style="--darkreader-inline-stroke: #74fec7;"/><polyline id="SvgjsPolyline12653" points="300.32,544.64 284.67,576.06 273.35,599.18" fill="none" stroke="#81fecc" stroke-width="1" data-darkreader-inline-stroke="" style="--darkreader-inline-stroke: #74fec7;"/><polyline id="SvgjsPolyline12654" points="299.8,578.02 321.64,534 338.81,498.12 345.65,483.23 353.26,466.13 365.1,438.11 371.17,422.9 377.02,407.6 382.63,392.21 387.26,378.95 391.71,365.64 396.68,350.03 401.41,334.35 405.91,318.6 409.59,305.05 414.24,286.92 418.08,270.99 422.22,252.74 428.86,220.66 432.75,199.96 436.37,179.21 439.37,160.73 442.86,137.6 445.46,119.06 448.77,93.53 453.85,49.36 456.46,23.76 458.64,0.46" fill="none" stroke="#81fecc" stroke-width="1" data-darkreader-inline-stroke="" style="--darkreader-inline-stroke: #74fec7;"/><polyline id="SvgjsPolyline12655" points="300.61,578.66 290.16,599.6" fill="none" stroke="#81fecc" stroke-width="1" data-darkreader-inline-stroke="" style="--darkreader-inline-stroke: #74fec7;"/><polyline id="SvgjsPolyline12656" points="306.28,599.57 327.97,555.48 343.9,521.6 350.62,506.66 358.99,487.33 370.48,459.17 377.18,441.69 382,428.5 388.16,410.82 393.29,395.27 401.54,368.43 406.03,352.68 411.48,332.33 415.46,316.45 420.28,295.94 423.8,279.95 428.04,259.32 431.14,243.23 434.87,222.51 438.34,201.73 441.22,183.24 444.57,160.08 447.06,141.52 449.96,118.31 452.63,95.06 456.73,55.49 459.31,27.53 461.47,1.88" fill="none" stroke="#81fecc" stroke-width="1" data-darkreader-inline-stroke="" style="--darkreader-inline-stroke: #74fec7;"/><polyline id="SvgjsPolyline12657" points="324.2,598.03 333.33,579.05 341.27,562.1 349.96,542.92 355.59,530.06 367.29,501.98 372.44,488.92 379.05,471.4 384.58,455.98 390.61,438.26 396.33,420.44 401.08,404.76 406.22,386.76 410.48,370.94 417.81,341.42 421.46,325.45 425.39,307.15 429.08,288.8 432.54,270.4 435.39,254.27 439.19,231.18 443.03,205.73 445.3,189.51 450.32,150.05 452.97,126.8 455.65,101.2 460.18,52.27 464.2,0.94" fill="none" stroke="#81fecc" stroke-width="1" data-darkreader-inline-stroke="" style="--darkreader-inline-stroke: #74fec7;"/><polyline id="SvgjsPolyline12658" points="341.09,598.39 354.5,568.5 361.82,551.28 368.01,536.11 378.91,507.71 383.67,494.5 390.48,474.57 395.51,458.98 399.63,445.56 407.97,416.31 412.13,400.47 416.09,384.57 420.35,366.34 424.35,348.06 428.1,329.72 431.62,311.33 437.64,276.75 440.56,258.26 443.96,235.11 449.15,195.67 452.15,170.1 454.42,149.17 458.92,102.59 463.14,51.28 466.55,2.26" fill="none" stroke="#81fecc" stroke-width="1" data-darkreader-inline-stroke="" style="--darkreader-inline-stroke: #74fec7;"/><polyline id="SvgjsPolyline12659" points="358,598.39 364.31,583.28 370.41,568.08 376.29,552.79 381.14,539.61 385.82,526.38 391.06,510.86 396.06,495.26 400.82,479.59 405.98,461.59 410.25,445.78 414.3,429.91 418.14,413.98 424.73,384.28 428.46,365.94 431.53,349.85 435.63,326.81 438.31,310.65 441.54,289.84 444.22,271.32 449.09,234.19 454.12,190.02 458.46,145.77 462.02,103.8 465.76,52.46 468.93,1.08" fill="none" stroke="#81fecc" stroke-width="1" data-darkreader-inline-stroke="" style="--darkreader-inline-stroke: #74fec7;"/><polyline id="SvgjsPolyline12660" points="374.89,597.86 380.6,582.5 386.06,567.06 394.88,540.4 403,513.52 407.42,497.75 411.03,484.18 417.77,456.93 421.93,438.67 425.36,422.66 429.05,404.3 432.09,388.21 437.68,355.93 443.34,318.92 448.02,284.13 452.95,242.3 457.45,198.07 461.52,151.45 464.85,107.12 468.3,53.41 471.09,2" fill="none" stroke="#81fecc" stroke-width="1" data-darkreader-inline-stroke="" style="--darkreader-inline-stroke: #74fec7;"/><polyline id="SvgjsPolyline12661" points="390.93,598.87 399.37,572.09 403.97,556.37 407.73,542.85 415.32,513.39 421.68,486.04 428.38,453.97 433.96,424.07 440.07,387.13 445.44,350.08 450.44,310.61 454.08,278.06 458.21,236.14 461.8,194.17 464.77,154.51 468.37,98.46 470.92,51.73 473.33,0.31" fill="none" stroke="#81fecc" stroke-width="1" data-darkreader-inline-stroke="" style="--darkreader-inline-stroke: #74fec7;"/><polyline id="SvgjsPolyline12662" points="406.99,599.17 414.09,572 420.56,544.68 426.45,517.22 431.8,489.66 437.04,459.69 442.44,425.01 446.62,394.88 451.47,355.4 455.24,320.5 459.01,280.9 462.5,238.92 465.7,194.58 468.48,150.21 471.25,98.8 473.21,56.73 475.46,0.61" fill="none" stroke="#81fecc" stroke-width="1" data-darkreader-inline-stroke="" style="--darkreader-inline-stroke: #74fec7;"/><polyline id="SvgjsPolyline12663" points="423.05,598.65 429.16,568.85 434.26,541.24 438.89,513.54 443.09,485.78 447.8,451 451.45,420.8 455.46,383.57 458.58,350.96 461.94,311.32 464.73,273.99 466.91,241.3 469.53,196.92 471.7,154.85 474.19,98.75 476.21,44.97 477.65,0.53" fill="none" stroke="#81fecc" stroke-width="1" data-darkreader-inline-stroke="" style="--darkreader-inline-stroke: #74fec7;"/><polyline id="SvgjsPolyline12664" points="438.56,599.59 442.46,574.14 446.33,546.33 449.85,518.47 453.3,488.25 456.64,455.66 459.23,427.7 462.33,390.39 464.75,357.72 467.51,315.69 469.8,275.97 471.6,240.92 474.01,187.15 475.64,145.07 477.3,95.95 479.92,0.05" fill="none" stroke="#81fecc" stroke-width="1" data-darkreader-inline-stroke="" style="--darkreader-inline-stroke: #74fec7;"/><polyline id="SvgjsPolyline12665" points="454.1,599.68 457.14,569.42 459.48,543.78 461.82,515.8 464.12,485.47 466.21,455.12 468.52,417.75 471.74,357 473.54,317.26 475.14,277.51 476.79,230.74 478.16,186.3 480.37,99.75 482.29,1.49" fill="none" stroke="#81fecc" stroke-width="1" data-darkreader-inline-stroke="" style="--darkreader-inline-stroke: #74fec7;"/><polyline id="SvgjsPolyline12666" points="469.62,598.96 472.55,540.53 475.26,475.07 477.49,409.58 479.62,332.39 481.28,257.53 482.62,182.66 484,84.39 484.91,0.16" fill="none" stroke="#81fecc" stroke-width="1" data-darkreader-inline-stroke="" style="--darkreader-inline-stroke: #74fec7;"/><polyline id="SvgjsPolyline12667" points="484.96,599.8 485.92,482.8 486.74,340.06 487.35,180.94 487.78,0.76" fill="none" stroke="#81fecc" stroke-width="1" data-darkreader-inline-stroke="" style="--darkreader-inline-stroke: #74fec7;"/><polyline id="SvgjsPolyline12668" points="500.32,599.94 498.65,539.12 497.21,478.3 495.83,410.46 494.48,330.91 492.51,176.48 491.04,0.99" fill="none" stroke="#81fecc" stroke-width="1" data-darkreader-inline-stroke="" style="--darkreader-inline-stroke: #74fec7;"/><polyline id="SvgjsPolyline12669" points="515.67,599.49 512.17,538.75 508.83,473.32 505.52,398.51 502.86,328.36 500.17,244.16 498.35,176.33 496.51,94.45 494.81,0.87" fill="none" stroke="#81fecc" stroke-width="1" data-darkreader-inline-stroke="" style="--darkreader-inline-stroke: #74fec7;"/><polyline id="SvgjsPolyline12670" points="531,598.56 525,523.92 520.26,458.57 515.86,390.85 511.71,318.43 508.1,245.98 504.71,166.5 501.78,84.65 499.28,0.45" fill="none" stroke="#81fecc" stroke-width="1" data-darkreader-inline-stroke="" style="--darkreader-inline-stroke: #74fec7;"/><polyline id="SvgjsPolyline12671" points="546.54,599.59 538.21,513.42 530.97,431.84 525.15,359.53 520.56,296.52 516.27,231.14 512.07,158.72 508.41,86.27 504.79,2.11" fill="none" stroke="#81fecc" stroke-width="1" data-darkreader-inline-stroke="" style="--darkreader-inline-stroke: #74fec7;"/><polyline id="SvgjsPolyline12672" points="561.82,598.06 552.2,507.31 543.27,418.84 536.88,351.28 531.13,286.02 525.12,211.38 520.53,148.36 515.67,73.64 511.55,1.22" fill="none" stroke="#81fecc" stroke-width="1" data-darkreader-inline-stroke="" style="--darkreader-inline-stroke: #74fec7;"/><polyline id="SvgjsPolyline12673" points="577.35,598.74 554.29,384.7 546.87,312.54 540.71,249.66 534.28,179.76 529.11,119.14 524.34,58.49 520.15,0.14" fill="none" stroke="#81fecc" stroke-width="1" data-darkreader-inline-stroke="" style="--darkreader-inline-stroke: #74fec7;"/><polyline id="SvgjsPolyline12674" points="592.85,599.43 582.47,499.35 559.61,287.63 549.12,187.56 543.99,136.34 539.07,85.1 531.56,1.19" fill="none" stroke="#81fecc" stroke-width="1" data-darkreader-inline-stroke="" style="--darkreader-inline-stroke: #74fec7;"/><polyline id="SvgjsPolyline12675" points="599.96,518.68 593.55,453.47 585.65,376.66 556.87,109.1 545.83,2.03" fill="none" stroke="#81fecc" stroke-width="1" data-darkreader-inline-stroke="" style="--darkreader-inline-stroke: #74fec7;"/><polyline id="SvgjsPolyline12676" points="599.94,365.74 593.07,295.88 585.15,219.07 561.59,0.37" fill="none" stroke="#81fecc" stroke-width="1" data-darkreader-inline-stroke="" style="--darkreader-inline-stroke: #74fec7;"/><polyline id="SvgjsPolyline12677" points="599.93,212.8 590.69,119.66 578.2,0.98" fill="none" stroke="#81fecc" stroke-width="1" data-darkreader-inline-stroke="" style="--darkreader-inline-stroke: #74fec7;"/><polyline id="SvgjsPolyline12678" points="599.92,59.86 594.21,1.64" fill="none" stroke="#81fecc" stroke-width="1" data-darkreader-inline-stroke="" style="--darkreader-inline-stroke: #74fec7;"/></g></svg>